Tilt-Prism.ufo
<glyph name="exclam" format="2">
  <advance width="289"/>
  <unicode hex="0021"/>
  <outline>
    <contour>
      <point x="64" y="161" type="move" name="KFGIGMOD"/>
      <point x="144" y="81" type="line" name="PHPTNCMS"/>
      <point x="225" y="0" type="line" name="JYLHONKL"/>
    </contour>
    <contour>
      <point x="64" y="0" type="move" name="GMKLNRTI"/>
      <point x="144" y="81" type="line" name="BGIAKFXI"/>
      <point x="225" y="161" type="line" name="DUAAOXAS"/>
    </contour>
    <contour>
      <point x="144.0" y="303.0" type="move" name="INZNHOIJ"/>
      <point x="144.0" y="618.0" type="line" name="IRHJFHBZ"/>
    </contour>
    <contour>
      <point x="198.0" y="257.0" type="move" name="JRLMZRMB"/>
      <point x="144.0" y="303.0" type="line" name="VWUMAPUP"/>
      <point x="91.0" y="257.0" type="line" name="XJBUXPFQ"/>
    </contour>
    <contour>
      <point x="51.0" y="680.0" type="move" name="ECUUNSVW"/>
      <point x="144.0" y="618.0" type="line" name="WZGBHWZC"/>
      <point x="238.0" y="680.0" type="line" name="SFLOLYUF"/>
    </contour>
  </outline>
</glyph>
<glyph name="five" format="2">
  <advance width="527"/>
  <unicode hex="0035"/>
  <outline>
    <contour>
      <point x="112" y="68" type="move" smooth="yes" name="WWGCWHSS"/>
      <point x="147" y="55" name="MXDDVGVB"/>
      <point x="182" y="48" name="QNODJVLA"/>
      <point x="216" y="48" type="curve" smooth="yes" name="CFIYQJKS"/>
      <point x="330" y="48" name="WQFZFIQW"/>
      <point x="410" y="110" name="ARTWFIHU"/>
      <point x="410" y="214" type="curve" smooth="yes" name="ZKGQPJDN"/>
      <point x="410" y="322" name="DVJSNSQB"/>
      <point x="322" y="387" name="XMUQCHAM"/>
      <point x="132" y="361" type="curve" name="CTTMUKAN"/>
      <point x="156" y="616" type="line" name="JZJVITAN"/>
      <point x="387" y="615" type="line" name="XSDQVTLM"/>
    </contour>
    <contour>
      <point x="449.0" y="680.0" type="move" name="EFXCGOBP"/>
      <point x="387.0" y="615.0" type="line" name="GEKQYSIJ"/>
      <point x="449.0" y="524.0" type="line" name="PVONLEGE"/>
    </contour>
    <contour>
      <point x="50.0" y="14.0" type="move" name="DRCDCDZK"/>
      <point x="112.0" y="68.0" type="line" name="UEGRQXCH"/>
      <point x="50.0" y="177.0" type="line" name="QZEWOOHK"/>
    </contour>
    <contour>
      <point x="60.0" y="290.0" type="move" name="VJDZZYDJ"/>
      <point x="132.0" y="361.0" type="line" name="CUINSKLC"/>
      <point x="203.0" y="427.0" type="line" name="IEDCTOMM"/>
    </contour>
    <contour>
      <point x="216.0" y="552.0" type="move" name="TWQETXVV"/>
      <point x="156.0" y="616.0" type="line" name="RKDHTPPG"/>
      <point x="96.0" y="680.0" type="line" name="CHDKNGSY"/>
    </contour>
  </outline>
</glyph>
<glyph name="seven" format="2">
  <advance width="503"/>
  <unicode hex="0037"/>
  <outline>
    <contour>
      <point x="198" y="70" type="move" name="DWHLGPNP"/>
      <point x="215" y="120" name="XDKAAYUE"/>
      <point x="244" y="199" name="IYVOMWBG"/>
      <point x="302" y="349" type="curve" smooth="yes" name="HXONLBMA"/>
      <point x="337" y="438" name="JJDVOFDA"/>
      <point x="371" y="528" name="IVIJYFFS"/>
      <point x="406" y="617" type="curve" name="EFFTHVTP"/>
      <point x="205.0" y="617.0" name="JOLLTGOH"/>
      <point x="144" y="615" name="VEPPKOZH"/>
      <point x="97" y="611" type="curve" name="NLSEGDFT"/>
    </contour>
    <contour>
      <point x="285.0" y="0.0" type="move" name="VYPIWFWC"/>
      <point x="198.0" y="70.0" type="line" name="HDOGQIGX"/>
      <point x="71.0" y="0.0" type="line" name="NZGOSKZA"/>
    </contour>
    <contour>
      <point x="35.0" y="524.0" type="move" name="DMOCMXSX"/>
      <point x="97.0" y="611.0" type="line" name="BUWWFJIJ"/>
      <point x="35.0" y="680.0" type="line" name="IIYOJRYX"/>
    </contour>
    <contour>
      <point x="310.0" y="554.0" type="move" name="ALZMLKRH"/>
      <point x="406.0" y="617.0" type="line" name="GDQDOWGL"/>
      <point x="503.0" y="680.0" type="line" name="OAVGTWOE"/>
    </contour>
  </outline>
</glyph>
<glyph name="nine" format="2">
  <advance width="570"/>
  <unicode hex="0039"/>
  <outline>
    <contour>
      <point x="369.0" y="608.0" type="move" name="SQKKVBEU"/>
      <point x="412.0" y="577.0" name="DHUATODE"/>
      <point x="437.0" y="526.0" name="MCMKNWQU"/>
      <point x="437.0" y="464.0" type="curve" smooth="yes" name="WWQNYGBI"/>
      <point x="437.0" y="365.0" name="AMPMBSMR"/>
      <point x="367.0" y="298.0" name="PQBOYOLH"/>
      <point x="262.0" y="298.0" type="curve" smooth="yes" name="NZOIIPIJ"/>
      <point x="178.0" y="298.0" name="FYXBCOQH"/>
      <point x="104.0" y="355.0" name="QQKNZCZT"/>
      <point x="104.0" y="462.0" type="curve" smooth="yes" name="PXAEVVYR"/>
      <point x="104.0" y="559.0" name="KOVYITLZ"/>
      <point x="173.0" y="634.0" name="PRYIPVRD"/>
      <point x="278.0" y="634.0" type="curve" smooth="yes" name="NRWRTGKT"/>
      <point x="383.0" y="634.0" name="GDSURPUK"/>
      <point x="462.0" y="550.0" name="QHYAQFIG"/>
      <point x="462.0" y="371.0" type="curve" name="MLRGKLGW"/>
      <point x="465.0" y="134.0" name="ZLKYAWCO"/>
      <point x="372.0" y="50.0" name="YGTUJGMY"/>
      <point x="238.0" y="50.0" type="curve" smooth="yes" name="KNXOBIJL"/>
      <point x="206.0" y="50.0" name="KLTGLWGT"/>
      <point x="172.0" y="56.0" name="HVNVNIHN"/>
      <point x="136.0" y="69.0" type="curve" smooth="yes" name="HHHDNAIW"/>
    </contour>
    <contour>
      <point x="385.0" y="287.0" type="move" name="WVJDBPST"/>
      <point x="441.0" y="336.0" name="UEMXPCWP"/>
      <point x="473.0" y="429.0" name="AGUKYDLW"/>
      <point x="426.0" y="540.0" type="curve" name="BELPDSFQ"/>
    </contour>
    <contour>
      <point x="74.0" y="14.0" type="move" name="EFXCGOBP"/>
      <point x="136.0" y="69.0" type="line" name="GEKQYSIJ"/>
      <point x="74.0" y="177.0" type="line" name="PVONLEGE"/>
    </contour>
  </outline>
</glyph>
<glyph name="W" format="2">
  <advance width="914"/>
  <unicode hex="0057"/>
  <anchor x="458" y="0" name="below"/>
  <anchor x="458" y="680.0" name="above"/>
  <outline>
    <contour>
      <point x="344" y="0" type="move" name="JRLMZRMB"/>
      <point x="293" y="72" type="line" name="VWUMAPUP"/>
      <point x="232" y="0" type="line" name="XJBUXPFQ"/>
    </contour>
    <contour>
      <point x="5" y="680" type="move" name="ECUUNSVW"/>
      <point x="124" y="618" type="line" name="WZGBHWZC"/>
      <point x="224" y="680" type="line" name="SFLOLYUF"/>
    </contour>
    <contour>
      <point x="682" y="0" type="move" name="PXIBMFLN"/>
      <point x="625" y="72" type="line" name="YWMEWBPF"/>
      <point x="568" y="0" type="line" name="RZJHOCJT"/>
    </contour>
    <contour>
      <point x="393" y="680" type="move" name="MALAHQIX"/>
      <point x="462" y="608" type="line" name="IVKMMAED"/>
      <point x="537" y="680" type="line" name="PEMBKKZD"/>
    </contour>
    <contour>
      <point x="702" y="680" type="move" name="BSWQMPFI"/>
      <point x="797" y="618" type="line" name="SQTPMPKY"/>
      <point x="909" y="680" type="line" name="THLTPRIU"/>
    </contour>
    <contour>
      <point x="797" y="618" type="move" name="OQPGFQDZ"/>
      <point x="625" y="72" type="line" name="ZXMOTHXV"/>
      <point x="462" y="608" type="line" name="WWRQRYXQ"/>
      <point x="293" y="72" type="line" name="DMZYCJPA"/>
      <point x="124" y="618" type="line" name="EMBDNEKB"/>
    </contour>
    <contour>
      <point x="299" y="286" type="move" name="VDICUIWS"/>
      <point x="293" y="72" type="line" name="RNJIKSAF"/>
    </contour>
    <contour>
      <point x="628" y="288" type="move" name="KGFXZBRX"/>
      <point x="625" y="72" type="line" name="OTRMXUPS"/>
    </contour>
    <contour>
      <point x="462" y="608" type="move" name="FETCXOJX"/>
      <point x="457" y="390" type="line" name="HMSHVJGZ"/>
    </contour>
  </outline>
</glyph>
<glyph name="b" format="2">
  <advance width="534"/>
  <unicode hex="0062"/>
  <outline>
    <contour>
      <point x="146.0" y="58.0" type="line" name="SEQEQUXA"/>
      <point x="294" y="58" type="line" smooth="yes" name="ULIYFAXF"/>
      <point x="375" y="58" name="JLRDOUPB"/>
      <point x="432" y="106" name="WBDKJCKQ"/>
      <point x="432" y="176" type="curve" smooth="yes" name="PNISCACM"/>
      <point x="432" y="251" name="DPHNORVU"/>
      <point x="367" y="298" name="BMISQIWT"/>
      <point x="270" y="298" type="curve" name="FLQXRPRO"/>
      <point x="354" y="298" name="FMWLFCMW"/>
      <point x="412" y="342" name="ZWVJLALR"/>
      <point x="412" y="413" type="curve" smooth="yes" name="DALPIAWP"/>
      <point x="412" y="478" name="SPVAMORD"/>
      <point x="360" y="522" name="FENIAACY"/>
      <point x="277" y="522" type="curve" smooth="yes" name="JWJXBQKL"/>
      <point x="146.0" y="522.0" type="line" name="RAORXVKE"/>
      <point x="146" y="298" type="line" name="EOQMPLWX"/>
    </contour>
    <contour>
      <point x="218.0" y="116.0" type="move" name="MJVZATKE"/>
      <point x="146.0" y="58.0" type="line" name="ZWRNCKHQ"/>
      <point x="50.0" y="0.0" type="line" name="EFSHOVMG"/>
    </contour>
    <contour>
      <point x="50.0" y="580.0" type="move" name="PGAOAJGW"/>
      <point x="146.0" y="522.0" type="line" name="ZPXQPUIZ"/>
      <point x="218.0" y="464.0" type="line" name="MKNQWECE"/>
    </contour>
    <contour>
      <point x="214.0" y="352.0" type="move" name="DAPSLMYS"/>
      <point x="146.0" y="298.0" type="line" name="EUWKCPFU"/>
      <point x="214.0" y="243.0" type="line" name="KKDJGKKF"/>
    </contour>
    <contour>
      <point x="146.0" y="298.0" type="move" name="OILAABOJ"/>
      <point x="187" y="298.0" name="EEZSDKLF"/>
      <point x="229" y="298.0" name="KEJOWPJN"/>
      <point x="270.0" y="298.0" type="curve" name="URLYNVOZ"/>
      <point x="322" y="300" name="ULOHIGBO"/>
      <point x="373" y="302" name="AWQFWATO"/>
      <point x="425.0" y="304.0" type="curve" name="ZIWAITVW"/>
    </contour>
  </outline>
</glyph>
<glyph name="e" format="2">
  <advance width="484"/>
  <unicode hex="0065"/>
  <anchor x="418" y="0" name="ogonek"/>
  <anchor x="244" y="0" name="below"/>
  <anchor x="244" y="580.0" name="above"/>
  <outline>
    <contour>
      <point x="331.0" y="300.0" type="move" name="CICHUSXK"/>
      <point x="146" y="300" type="line" name="NJETCQRE"/>
    </contour>
    <contour>
      <point x="358" y="514" type="move" smooth="yes" name="YIJRQYXC"/>
      <point x="294" y="519" name="VJEHZRKQ"/>
      <point x="198" y="522" name="IANXWSND"/>
      <point x="146" y="519" type="curve" name="BTUNAMTW"/>
      <point x="146" y="300" type="line" name="OQDOSWDY"/>
      <point x="146" y="61" type="line" name="LQNMDNKK"/>
      <point x="198" y="58" name="SDYDOOYS"/>
      <point x="291" y="60" name="DQYVUWFN"/>
      <point x="356" y="66" type="curve" smooth="yes" name="AQNNCKZT"/>
    </contour>
    <contour>
      <point x="420.0" y="580.0" type="move" name="IIYOJRYX"/>
      <point x="358.0" y="514.0" type="line" name="BUWWFJIJ"/>
      <point x="420.0" y="431.0" type="line" name="DMOCMXSX"/>
    </contour>
    <contour>
      <point x="438.0" y="160.0" type="move" name="NFCLXEKZ"/>
      <point x="356.0" y="66.0" type="line" name="DGWJLFZR"/>
      <point x="418.0" y="0.0" type="line" name="RDJQSJBO"/>
    </contour>
    <contour>
      <point x="393.0" y="379.0" type="move" name="UBWSCXEJ"/>
      <point x="331.0" y="300.0" type="line" name="OGPDTMUS"/>
      <point x="393.0" y="222.0" type="line" name="JMWBMAFS"/>
    </contour>
    <contour>
      <point x="50" y="580" type="move" name="LZXKDDDL"/>
      <point x="146.0" y="519.0" type="line" name="XKKFLDUD"/>
      <point x="217" y="461" type="line" name="UIJAQXHG"/>
    </contour>
    <contour>
      <point x="50.0" y="0.0" type="move" name="MDSIAWQI"/>
      <point x="146.0" y="61.0" type="line" name="HDDCNYEO"/>
      <point x="218.0" y="119.0" type="line" name="APMWXQKH"/>
    </contour>
    <contour>
      <point x="214.0" y="357.0" type="move" name="YKWNNPJU"/>
      <point x="146.0" y="300.0" type="line" name="QLSMBTNH"/>
      <point x="214.0" y="243.0" type="line" name="ZFXAFKKW"/>
    </contour>
  </outline>
</glyph>
<glyph name="w" format="2">
  <advance width="795"/>
  <unicode hex="0077"/>
  <anchor x="398" y="0" name="below"/>
  <anchor x="398" y="580.0" name="above"/>
  <outline>
    <contour>
      <point x="685" y="518" type="move" name="BDYORXIC"/>
      <point x="544" y="51" type="line" name="JHBCWNFG"/>
      <point x="401" y="511" type="line" name="WKEIDWRZ"/>
      <point x="257" y="51" type="line" name="AREDDVNN"/>
      <point x="113" y="518" type="line" name="XUKQKLMJ"/>
    </contour>
    <contour>
      <point x="5" y="580" type="move" name="AEBVRYDD"/>
      <point x="113" y="518" type="line" name="AQYCQFWT"/>
      <point x="205" y="580" type="line" name="UZIVUDDH"/>
    </contour>
    <contour>
      <point x="599" y="580" type="move" name="AYBUHMOZ"/>
      <point x="685" y="518" type="line" name="YLXMORRQ"/>
      <point x="790" y="580" type="line" name="MPLHXCOK"/>
    </contour>
    <contour>
      <point x="343" y="580" type="move" name="MQRCDBGX"/>
      <point x="401" y="511" type="line" name="OBBNSIJZ"/>
      <point x="462" y="580" type="line" name="NIXDGGVS"/>
    </contour>
    <contour>
      <point x="398" y="316" type="move" name="ZJVAIKIO"/>
      <point x="401" y="511" type="line" name="GKMWSCHG"/>
    </contour>
    <contour>
      <point x="198" y="0" type="move" name="STTSGMKL"/>
      <point x="257" y="51" type="line" name="GCAORQPK"/>
      <point x="306" y="0" type="line" name="UIRAJDEY"/>
    </contour>
    <contour>
      <point x="489" y="0" type="move" name="LXGCFHEW"/>
      <point x="544" y="51" type="line" name="MFUMHNHH"/>
      <point x="597" y="0" type="line" name="MAFGZRZN"/>
    </contour>
    <contour>
      <point x="262" y="266" type="move" name="VITSYKLH"/>
      <point x="257" y="51" type="line" name="ZMXTIPMD"/>
    </contour>
    <contour>
      <point x="545" y="271" type="move" name="TJBBHKND"/>
      <point x="544" y="51" type="line" name="KXTGPITH"/>
    </contour>
  </outline>
</glyph>
<glyph name="copyright" format="2">
  <advance width="812"/>
  <unicode hex="00A9"/>
  <outline>
    <contour>
      <point x="468" y="212" type="move" smooth="yes" name="IWAIZXFK"/>
      <point x="377" y="195" name="QHRMHVQC"/>
      <point x="304.0" y="247" name="UHFSNJJG"/>
      <point x="304" y="340" type="curve" smooth="yes" name="NABESBAB"/>
      <point x="304" y="433" name="XXFRXCHK"/>
      <point x="382" y="488" name="TFLTFWWO"/>
      <point x="468" y="468" type="curve" name="VSXDUIVF"/>
    </contour>
    <contour>
      <point x="406" y="35" type="curve" smooth="yes" name="KTHBOFUU"/>
      <point x="584" y="35" name="NWPRWYNH"/>
      <point x="712" y="164" name="FGGMBFQQ"/>
      <point x="712" y="340" type="curve" smooth="yes" name="YKVAOXVF"/>
      <point x="712" y="516" name="BAWJDKQQ"/>
      <point x="584" y="645" name="ZCHITEMF"/>
      <point x="406" y="645" type="curve" smooth="yes" name="MJZTEGVD"/>
      <point x="228" y="645" name="GXPWCOCO"/>
      <point x="100" y="516" name="IDCHVQAV"/>
      <point x="100" y="340" type="curve" smooth="yes" name="YZHAKJUT"/>
      <point x="100" y="164" name="TTPMWZGL"/>
      <point x="228" y="35" name="BGNCQKKH"/>
    </contour>
    <contour>
      <point x="520.0" y="500.0" type="move" name="ZULDVEQS"/>
      <point x="468.0" y="468.0" type="line" name="JMKROTCC"/>
      <point x="520.0" y="396.0" type="line" name="XIDPBYSX"/>
    </contour>
    <contour>
      <point x="520.0" y="285.0" type="move" name="HPWCQDQM"/>
      <point x="468.0" y="212.0" type="line" name="HPFMOIEH"/>
      <point x="520.0" y="180.0" type="line" name="KGUOKEGW"/>
    </contour>
  </outline>
</glyph>
<glyph name="paragraph" format="2">
  <advance width="768"/>
  <unicode hex="00B6"/>
  <outline>
    <contour>
      <point x="614.0" y="62.0" type="move" name="WOHXIEPP"/>
      <point x="614" y="349" type="line" name="HKMHMJEG"/>
      <point x="614" y="468" name="XEHFAIIO"/>
      <point x="616" y="547" name="IKPMGUOW"/>
      <point x="620" y="618" type="curve" name="RIIVTYTF"/>
      <point x="288" y="618" type="line" name="RGILYDEK"/>
      <point x="184" y="618" name="ZXTCBELZ"/>
      <point x="120" y="558" name="GNYEHJVK"/>
      <point x="120" y="468" type="curve" smooth="yes" name="GNMGBQVB"/>
      <point x="120" y="378" name="BPBRZTII"/>
      <point x="184" y="317" name="LHGAEHVT"/>
      <point x="276" y="317" type="curve" smooth="yes" name="LUPHGQCF"/>
      <point x="394.0" y="317.0" type="line" name="DSCZHVVO"/>
    </contour>
    <contour>
      <point x="388" y="618" type="move" name="IQWJGPUJ"/>
      <point x="393" y="547" name="SRCLPQVZ"/>
      <point x="394.0" y="447" name="KHSKHVHR"/>
      <point x="394" y="349" type="curve" smooth="yes" name="DSMJJCPV"/>
      <point x="394.0" y="62.0" type="line" name="PDFJLSEO"/>
    </contour>
    <contour>
      <point x="708.0" y="0.0" type="move" name="LBSUKNCH"/>
      <point x="614.0" y="62.0" type="line" name="NPPPWUMM"/>
      <point x="521.0" y="0.0" type="line" name="LAEUUKWR"/>
    </contour>
    <contour>
      <point x="488.0" y="0.0" type="move" name="YEBUXAXM"/>
      <point x="394.0" y="62.0" type="line" name="OVBUQIDV"/>
      <point x="301.0" y="0.0" type="line" name="SXENYZXW"/>
    </contour>
    <contour>
      <point x="548.0" y="555.0" type="move" name="AKDZFDJF"/>
      <point x="620.0" y="618.0" type="line" name="GSHRJIGM"/>
      <point x="708.0" y="680.0" type="line" name="BVHCDVWV"/>
    </contour>
    <contour>
      <point x="324.0" y="555.0" type="move" name="BSIEZCMB"/>
      <point x="388.0" y="618.0" type="line" name="CPAAMRDE"/>
      <point x="461.0" y="555.0" type="line" name="ITTYFALT"/>
    </contour>
    <contour>
      <point x="328.0" y="257.0" type="move" name="PSWXMVHJ"/>
      <point x="394.0" y="317.0" type="line" name="IAXVYSDJ"/>
      <point x="328.0" y="377.0" type="line" name="FRRLEQSB"/>
    </contour>
  </outline>
</glyph>
<glyph name="onesuperior" format="2">
  <advance width="344"/>
  <unicode hex="00B9"/>
  <outline>
    <contour>
      <point x="90" y="608" type="move" smooth="yes" name="LGAWLIOF"/>
      <point x="120" y="616" name="FPELBJBQ"/>
      <point x="156" y="624" name="RTEOSXII"/>
      <point x="197" y="631" type="curve" name="KSZPWNFU"/>
      <point x="195" y="603" name="MVMHRIMX"/>
      <point x="194" y="575" name="WZORDRQK"/>
      <point x="194" y="484" type="curve" smooth="yes" name="ZVAXMOYV"/>
      <point x="194" y="323" type="line" name="ECEMLJVK"/>
    </contour>
    <contour>
      <point x="272.0" y="271.0" type="move" name="HMCBDXWQ"/>
      <point x="194.0" y="323.0" type="line" name="NKQGKGLT"/>
      <point x="108.0" y="271.0" type="line" name="AHVUZJUJ"/>
    </contour>
    <contour>
      <point x="40.0" y="529.0" type="move" name="YKSBPDZL"/>
      <point x="90.0" y="608.0" type="line" name="SJSBMLGJ"/>
      <point x="40.0" y="653.0" type="line" name="EVCDMOCG"/>
    </contour>
    <contour>
      <point x="132.0" y="567.0" type="move" name="FBAXOHBA"/>
      <point x="197.0" y="631.0" type="line" name="PARNAAAU"/>
      <point x="265.0" y="694.0" type="line" name="LGHUHPJI"/>
    </contour>
  </outline>
</glyph>
<glyph name="Ccedilla" format="2">
  <advance width="610"/>
  <unicode hex="00C7"/>
  <anchor x="349" y="683.0" name="above"/>
  <outline>
    <contour>
      <point x="488" y="607" type="move" smooth="yes" name="OTIEBRKS"/>
      <point x="453" y="620" name="YPRKRTZV"/>
      <point x="409" y="628" name="LXZETYOW"/>
      <point x="374" y="628" type="curve" smooth="yes" name="FKRLWQMK"/>
      <point x="215" y="628" name="GIEIPESM"/>
      <point x="113" y="512" name="HMVARBTE"/>
      <point x="113" y="339" type="curve" smooth="yes" name="PWWRFBNV"/>
      <point x="113" y="186" name="EOLMZQXY"/>
      <point x="194" y="79" name="ZXWYYBKF"/>
      <point x="322" y="56" type="curve" smooth="yes" name="IVEGIRPV"/>
      <point x="372" y="47" name="KUPQGAYK"/>
      <point x="440" y="53" name="AACWLGTU"/>
      <point x="488" y="71" type="curve" smooth="yes" name="TZWJADCX"/>
    </contour>
    <contour>
      <point x="550" y="658" type="move" name="SUGGBCBT"/>
      <point x="488" y="607" type="line" name="XDXDZKQH"/>
      <point x="550" y="490" type="line" name="RLXYSYOD"/>
    </contour>
    <contour>
      <point x="550" y="190" type="move" name="HIBDMTPG"/>
      <point x="488" y="71" type="line" name="PVCGWESS"/>
      <point x="550" y="22" type="line" name="PHGKFQEU"/>
    </contour>
    <contour>
      <point x="201" y="-230" type="move" name="DFCJGJXO"/>
      <point x="263" y="-189" type="line" name="DKMLTTEC"/>
      <point x="201" y="-104" type="line" name="LXPIVPAR"/>
    </contour>
    <contour>
      <point x="322" y="56" type="move" name="IMFPFAZT"/>
      <point x="315" y="-12" name="KWTXZFYP"/>
      <point x="346" y="-36" name="VOSGJUSH"/>
      <point x="377" y="-57" type="curve" smooth="yes" name="WLTTFYVR"/>
      <point x="404" y="-74" name="OOWMWQPE"/>
      <point x="431" y="-89" name="UPMOONJN"/>
      <point x="431" y="-128" type="curve" smooth="yes" name="HJGOZJDQ"/>
      <point x="431" y="-194" name="GKXVUBWG"/>
      <point x="363" y="-217" name="KGRGIOTL"/>
      <point x="263" y="-189" type="curve" name="IHLPPJJH"/>
    </contour>
    <contour>
      <point x="266.0" y="3.0" type="move" name="WWNFQMVO"/>
      <point x="322.0" y="56.0" type="line" name="KBFVFPZH"/>
      <point x="399.0" y="-12.0" type="line" name="RVTUUWQG"/>
    </contour>
  </outline>
</glyph>
<glyph name="Eth" format="2">
  <advance width="701"/>
  <unicode hex="00D0"/>
  <outline>
    <contour>
      <point x="241" y="125" type="move" name="MJVZATKE"/>
      <point x="166" y="62" type="line" name="ZWRNCKHQ"/>
      <point x="67" y="0" type="line" name="EFSHOVMG"/>
    </contour>
    <contour>
      <point x="67" y="680" type="move" name="PGAOAJGW"/>
      <point x="166" y="618" type="line" name="ZPXQPUIZ"/>
      <point x="241" y="555" type="line" name="MKNQWECE"/>
    </contour>
    <contour>
      <point x="166" y="62" type="line" name="AQFNPWKD"/>
      <point x="166" y="618" type="line" name="XGLJNHJF"/>
      <point x="316" y="618" type="line" smooth="yes" name="VAASNHYO"/>
      <point x="477" y="618" name="TNRFHSZN"/>
      <point x="588" y="509" name="ZWJKCABV"/>
      <point x="588" y="341" type="curve" smooth="yes" name="VGDCTNWC"/>
      <point x="588" y="172" name="ALDKOYCL"/>
      <point x="477" y="62" name="XXAOFSRB"/>
      <point x="316" y="62" type="curve" smooth="yes" name="KIJSYAEP"/>
    </contour>
    <contour>
      <point x="303.0" y="340.0" type="move" name="TNCBDFZB"/>
      <point x="87.0" y="340.0" type="line" name="ZKLRHXDL"/>
    </contour>
    <contour>
      <point x="25.0" y="277.0" type="move" name="QXYCFKZZ"/>
      <point x="87.0" y="340.0" type="line" name="VKBDRAMS"/>
      <point x="25.0" y="404.0" type="line" name="ANSDBWON"/>
    </contour>
    <contour>
      <point x="365.0" y="404.0" type="move" name="AORGRKMK"/>
      <point x="303.0" y="340.0" type="line" name="KMRKYDKC"/>
      <point x="365.0" y="277.0" type="line" name="GHOKTHSE"/>
    </contour>
    <contour>
      <point x="237.0" y="404.0" type="move" name="QZHBYWVM"/>
      <point x="166.0" y="340.0" type="line" name="YCHSLTLB"/>
      <point x="94.0" y="277.0" type="line" name="ITLFGEOH"/>
    </contour>
    <contour>
      <point x="94.0" y="404.0" type="move" name="PNZWWWPV"/>
      <point x="166.0" y="340.0" type="line" name="TNRPUJAE"/>
      <point x="237.0" y="277.0" type="line" name="ETOPYSIG"/>
    </contour>
  </outline>
</glyph>
<glyph name="Thorn" format="2">
  <advance width="588"/>
  <unicode hex="00DE"/>
  <outline>
    <contour>
      <point x="156.0" y="618.0" type="move" name="QCHFEGJJ"/>
      <point x="156.0" y="62.0" type="line" name="GBNXYLDX"/>
    </contour>
    <contour>
      <point x="254.0" y="0.0" type="move" name="FMCFYSIG"/>
      <point x="156.0" y="62.0" type="line" name="GLJIMZVD"/>
      <point x="57" y="0" type="line" name="ARRPQJWP"/>
    </contour>
    <contour>
      <point x="57.0" y="680.0" type="move" name="HWEXGBBA"/>
      <point x="156.0" y="618.0" type="line" name="PCPNIQWP"/>
      <point x="254.0" y="680.0" type="line" name="VANHQHZF"/>
    </contour>
    <contour>
      <point x="156.0" y="177.0" type="move" name="WCJHEDEW"/>
      <point x="317" y="177" type="line" smooth="yes" name="BYATUHLG"/>
      <point x="428" y="177" name="IFKQTLGL"/>
      <point x="494" y="243" name="QYLWIHNF"/>
      <point x="494" y="340" type="curve" smooth="yes" name="KGEGAGMY"/>
      <point x="494" y="437" name="TQUYERTC"/>
      <point x="428" y="503" name="ZRFQCLQC"/>
      <point x="317" y="503" type="curve" smooth="yes" name="KFBPXKUW"/>
      <point x="156.0" y="503.0" type="line" name="SHULVQFJ"/>
    </contour>
    <contour>
      <point x="228.0" y="240.0" type="move" name="SQGYWLIG"/>
      <point x="156.0" y="177.0" type="line" name="SWPEMWSN"/>
      <point x="231.0" y="115.0" type="line" name="OLCESGOH"/>
    </contour>
    <contour>
      <point x="231.0" y="565.0" type="move" name="HXSLJJEW"/>
      <point x="156.0" y="503.0" type="line" name="RTLNXJAO"/>
      <point x="227.0" y="440.0" type="line" name="ETBLFEZP"/>
    </contour>
  </outline>
</glyph>
<glyph name="Eogonek" format="2">
  <advance width="549"/>
  <unicode hex="0118"/>
  <outline>
    <contour>
      <point x="414" y="611" type="move" smooth="yes" name="PSTPYLRZ"/>
      <point x="343" y="616" name="SKEEOTAO"/>
      <point x="225" y="620" name="TDJFVIIW"/>
      <point x="156" y="618" type="curve" name="DARGRHBN"/>
      <point x="156" y="62" type="line" name="BZBSRBAL"/>
      <point x="227" y="60" name="XASQUJDO"/>
      <point x="341" y="63" name="HUEQRWOZ"/>
      <point x="412" y="69" type="curve" smooth="yes" name="WQTISNDK"/>
    </contour>
    <contour>
      <point x="387" y="350" type="move" name="GRLQYXQK"/>
      <point x="156" y="350" type="line" name="GHHEYZBI"/>
    </contour>
    <contour>
      <point x="231" y="125" type="move" name="MJVZATKE"/>
      <point x="156" y="62" type="line" name="ZWRNCKHQ"/>
      <point x="57" y="0" type="line" name="EFSHOVMG"/>
    </contour>
    <contour>
      <point x="57" y="680" type="move" name="GRZQCAGM"/>
      <point x="156" y="618" type="line" name="LXMSTDXV"/>
      <point x="231" y="555" type="line" name="MENRSPSU"/>
    </contour>
    <contour>
      <point x="476" y="680" type="move" name="IIYOJRYX"/>
      <point x="414" y="611" type="line" name="BUWWFJIJ"/>
      <point x="476" y="524" type="line" name="DMOCMXSX"/>
    </contour>
    <contour>
      <point x="494" y="166" type="move" name="NFCLXEKZ"/>
      <point x="412" y="69" type="line" name="CCWORCIY"/>
      <point x="412" y="69" type="line" name="DGWJLFZR"/>
      <point x="474" y="0" type="line" name="RDJQSJBO"/>
    </contour>
    <contour>
      <point x="449" y="432" type="move" name="UBWSCXEJ"/>
      <point x="387" y="350" type="line" name="OGPDTMUS"/>
      <point x="449" y="269" type="line" name="JMWBMAFS"/>
    </contour>
    <contour>
      <point x="227" y="410" type="move" name="HAWFMGNR"/>
      <point x="156" y="350" type="line" name="ROFWTZTV"/>
      <point x="227" y="290" type="line" name="GOKVVXDN"/>
    </contour>
    <contour>
      <point x="464" y="-179" type="move" name="TDKGEXGS"/>
      <point x="411" y="-139" type="line" name="JFLXDZMU"/>
      <point x="474" y="-66" type="line" name="JROKUSYG"/>
    </contour>
    <contour>
      <point x="412" y="69" type="move" smooth="yes" name="YOLOBFDO"/>
      <point x="338" y="20" name="QEOJWBPX"/>
      <point x="313" y="-25" name="UHSPFJVJ"/>
      <point x="313" y="-80" type="curve" smooth="yes" name="XXTPLGVC"/>
      <point x="313" y="-124" name="MDFGYCPI"/>
      <point x="349" y="-149" name="TMPQFAZI"/>
      <point x="411" y="-139" type="curve" smooth="yes" name="UWPYQXVL"/>
    </contour>
    <contour>
      <point x="277" y="0" type="move" name="RVIABPMT"/>
      <point x="412.0" y="69.0" type="line" name="WXHBBEKB"/>
    </contour>
  </outline>
</glyph>
<glyph name="Hbar" format="2">
  <advance width="723"/>
  <unicode hex="0126"/>
  <outline>
    <contour>
      <point x="166.0" y="618.0" type="move" name="LOVKONHF"/>
      <point x="166" y="477" type="line" name="TQRBJCEK"/>
      <point x="166" y="284" type="line" name="MCNWQPGJ"/>
      <point x="166.0" y="62.0" type="line" name="VOAKOVDR"/>
    </contour>
    <contour>
      <point x="558.0" y="618.0" type="move" name="ORZKZRED"/>
      <point x="558" y="477" type="line" name="FSGRZLIT"/>
      <point x="558" y="284" type="line" name="RCAEVWQB"/>
      <point x="558.0" y="62.0" type="line" name="JBZDLIEF"/>
    </contour>
    <contour>
      <point x="637.0" y="477.0" type="move" name="RLDKCXKF"/>
      <point x="558" y="477" type="line" name="LDYCMUFW"/>
      <point x="166" y="477" type="line" name="YKSCPUKN"/>
      <point x="86.0" y="477.0" type="line" name="MWVDKSCI"/>
    </contour>
    <contour>
      <point x="558" y="284" type="move" name="YDNBUSCG"/>
      <point x="166" y="284" type="line" name="DZZPUIKY"/>
    </contour>
    <contour>
      <point x="264.0" y="0.0" type="move" name="JRLMZRMB"/>
      <point x="166.0" y="62.0" type="line" name="VWUMAPUP"/>
      <point x="67" y="0" type="line" name="XJBUXPFQ"/>
    </contour>
    <contour>
      <point x="67.0" y="680.0" type="move" name="ECUUNSVW"/>
      <point x="166.0" y="618.0" type="line" name="WZGBHWZC"/>
      <point x="264.0" y="680.0" type="line" name="SFLOLYUF"/>
    </contour>
    <contour>
      <point x="656.0" y="0.0" type="move" name="PXIBMFLN"/>
      <point x="558.0" y="62.0" type="line" name="YWMEWBPF"/>
      <point x="459.0" y="0.0" type="line" name="RZJHOCJT"/>
    </contour>
    <contour>
      <point x="459.0" y="680.0" type="move" name="NUKKCNGE"/>
      <point x="558.0" y="618.0" type="line" name="POROMZGU"/>
      <point x="656.0" y="680.0" type="line" name="FQNYHCGX"/>
    </contour>
    <contour>
      <point x="24.0" y="537.0" type="move" name="GYKTTQZL"/>
      <point x="86" y="477" type="line" name="VCSCYDIV"/>
      <point x="24.0" y="417.0" type="line" name="QMMOFCIA"/>
    </contour>
    <contour>
      <point x="699.0" y="417.0" type="move" name="XDIVHRDZ"/>
      <point x="637.0" y="477.0" type="line" name="YJZNKKWB"/>
      <point x="699.0" y="537.0" type="line" name="GFRXTDCJ"/>
    </contour>
    <contour>
      <point x="629.0" y="417.0" type="move" name="GPGAVYEX"/>
      <point x="558.0" y="477.0" type="line" name="FYBHPWDZ"/>
      <point x="483.0" y="537.0" type="line" name="DTRUXXAY"/>
    </contour>
    <contour>
      <point x="632.0" y="537.0" type="move" name="UPCOMWTD"/>
      <point x="558.0" y="477.0" type="line" name="CVVDTFPW"/>
      <point x="486.0" y="417.0" type="line" name="HVUPMVGD"/>
    </contour>
    <contour>
      <point x="240.0" y="537.0" type="move" name="SGNOWLAT"/>
      <point x="166.0" y="477.0" type="line" name="SDWNSNLM"/>
      <point x="94.0" y="417.0" type="line" name="WREXZJXA"/>
    </contour>
    <contour>
      <point x="237.0" y="417.0" type="move" name="PMCOOANF"/>
      <point x="166.0" y="477.0" type="line" name="DEXWJXEE"/>
      <point x="91.0" y="537.0" type="line" name="VQVWXGGE"/>
    </contour>
    <contour>
      <point x="238.0" y="221.0" type="move" name="KSOEFKVG"/>
      <point x="166.0" y="284.0" type="line" name="VVIMNFCZ"/>
      <point x="237.0" y="348.0" type="line" name="MMACTKUU"/>
    </contour>
    <contour>
      <point x="486.0" y="348.0" type="move" name="RRHQAIBQ"/>
      <point x="558.0" y="284.0" type="line" name="GEDYIQSA"/>
      <point x="485.0" y="221.0" type="line" name="BVMPGNOF"/>
    </contour>
  </outline>
</glyph>
<glyph name="Lslash" format="2">
  <advance width="514"/>
  <unicode hex="0141"/>
  <outline>
    <contour>
      <point x="166" y="66" type="move" name="HLKARPKD"/>
      <point x="67" y="0" type="line" name="CAXDJESN"/>
    </contour>
    <contour>
      <point x="241" y="132" type="move" name="ZQLPTKEQ"/>
      <point x="166" y="66" type="line" name="WQVHYTOT"/>
    </contour>
    <contour>
      <point x="67" y="680" type="move" name="GWUPVZME"/>
      <point x="166" y="618" type="line" name="EVRAEOHV"/>
      <point x="264" y="680" type="line" name="HTNHVKFI"/>
    </contour>
    <contour>
      <point x="469" y="0" type="move" name="WYNGJMRG"/>
      <point x="407" y="74" type="line" name="QOPNIVWZ"/>
      <point x="489" y="171" type="line" name="CULRGSZC"/>
    </contour>
    <contour>
      <point x="166" y="618" type="move" name="GPVNCZRV"/>
      <point x="166" y="381" type="line" name="KGGTVDFU"/>
      <point x="166" y="66" type="line" name="PXMEXSJK"/>
      <point x="407" y="74" type="line" name="NLYZZDFH"/>
    </contour>
    <contour>
      <point x="307.0" y="422.0" type="move" name="FYEBZBYX"/>
      <point x="166" y="381" type="line" name="HLPRUFYA"/>
      <point x="86.0" y="358.0" type="line" name="LMRCCARX"/>
    </contour>
    <contour>
      <point x="24" y="272" type="move" name="KCWFADSJ"/>
      <point x="86" y="358" type="line" name="NBIOYVLP"/>
      <point x="24" y="407" type="line" name="IZBHAJEP"/>
    </contour>
    <contour>
      <point x="369.0" y="507.0" type="move" name="WGVPBZVF"/>
      <point x="307.0" y="422.0" type="line" name="JYCGOJAR"/>
      <point x="369.0" y="372.0" type="line" name="SFPBYSXC"/>
    </contour>
    <contour>
      <point x="94.0" y="292.0" type="move" name="KFEAAYQS"/>
      <point x="166.0" y="381.0" type="line" name="YWOTRZPB"/>
      <point x="238.0" y="469.0" type="line" name="TRUSJQLK"/>
    </contour>
    <contour>
      <point x="94.0" y="427.0" type="move" name="YCTPJADU"/>
      <point x="166.0" y="381.0" type="line" name="UMRSPBKD"/>
      <point x="237.0" y="334.0" type="line" name="PHSQNDHS"/>
    </contour>
  </outline>
</glyph>
<glyph name="OE" format="2">
  <advance width="929"/>
  <unicode hex="0152"/>
  <outline>
    <contour>
      <point x="767.0" y="350.0" type="move" name="ABNNJNUS"/>
      <point x="536" y="350" type="line" name="FJRPNWID"/>
    </contour>
    <contour>
      <point x="856.0" y="680.0" type="move" name="ZRNXEXXF"/>
      <point x="794.0" y="611.0" type="line" name="LQSQUGYE"/>
      <point x="856.0" y="524.0" type="line" name="DCONITNL"/>
    </contour>
    <contour>
      <point x="874.0" y="166.0" type="move" name="UYQYWLIL"/>
      <point x="792.0" y="69.0" type="line" name="LISQJBTI"/>
      <point x="854.0" y="0.0" type="line" name="NAVJWWRO"/>
    </contour>
    <contour>
      <point x="829.0" y="432.0" type="move" name="QXHHRBDG"/>
      <point x="767.0" y="350.0" type="line" name="PNSRFZMV"/>
      <point x="829.0" y="269.0" type="line" name="JWICGTWF"/>
    </contour>
    <contour>
      <point x="607.0" y="410.0" type="move" name="LNJDBQRX"/>
      <point x="536.0" y="350.0" type="line" name="PSOFVABU"/>
      <point x="607.0" y="290.0" type="line" name="IYHHGGER"/>
    </contour>
    <contour>
      <point x="792" y="69" type="move" smooth="yes" name="NIXWZHTZ"/>
      <point x="721" y="63" name="GHZPAIAG"/>
      <point x="607.0" y="62.0" name="YQDSYBAS"/>
      <point x="536.0" y="62.0" type="curve" smooth="yes" name="UESODJKM"/>
      <point x="385.0" y="62.0" type="line" smooth="yes" name="ZEVSGMUQ"/>
      <point x="224" y="62" name="KQVZDERP"/>
      <point x="113.0" y="171.0" name="UJGAFMFS"/>
      <point x="113.0" y="339.0" type="curve" smooth="yes" name="HVYYAWNZ"/>
      <point x="113.0" y="508.0" name="YPGGUJWC"/>
      <point x="224" y="618" name="JGFMQYLF"/>
      <point x="385.0" y="618.0" type="curve" smooth="yes" name="QOETDPAJ"/>
      <point x="536.0" y="618.0" type="line" smooth="yes" name="MVXEPLNQ"/>
      <point x="605.0" y="618.0" name="DMXDAZDD"/>
      <point x="723" y="616" name="JCFLRKLB"/>
      <point x="794" y="611" type="curve" smooth="yes" name="DLTZYDJS"/>
    </contour>
    <contour>
      <point x="536" y="618" type="move" name="EFMZOJFK"/>
      <point x="536" y="62" type="line" name="JBNERGUR"/>
    </contour>
    <contour>
      <point x="460.0" y="555.0" type="move" name="UHPBPIVY"/>
      <point x="536.0" y="618.0" type="line" name="LCJNQWZB"/>
      <point x="611.0" y="555.0" type="line" name="SQHNCRFQ"/>
    </contour>
    <contour>
      <point x="611.0" y="125.0" type="move" name="RWUQZIPO"/>
      <point x="536.0" y="62.0" type="line" name="XGIAXLDC"/>
      <point x="460.0" y="125.0" type="line" name="ZTVRMNKK"/>
    </contour>
  </outline>
</glyph>
<glyph name="Scedilla" format="2">
  <advance width="533"/>
  <unicode hex="015E"/>
  <outline>
    <contour>
      <point x="412" y="608" type="move" smooth="yes" name="RYGLFKNP"/>
      <point x="373" y="621" name="IUQTBJKV"/>
      <point x="333" y="628" name="BJJCIKPQ"/>
      <point x="296" y="628" type="curve" smooth="yes" name="KUYMMKWV"/>
      <point x="189" y="628" name="QJSZQFVL"/>
      <point x="124" y="575" name="TXSXQEYG"/>
      <point x="124" y="490" type="curve" smooth="yes" name="DYUFHJUT"/>
      <point x="124" y="412" name="HZWORBWM"/>
      <point x="200" y="376" name="HDTCKHKP"/>
      <point x="276" y="340" type="curve" smooth="yes" name="OCRVCJKM"/>
      <point x="352" y="304" name="OLKWBAVE"/>
      <point x="428" y="269" name="HRVALNME"/>
      <point x="428" y="192" type="curve" smooth="yes" name="PLSCPDAD"/>
      <point x="428" y="102" name="OETPXQZF"/>
      <point x="358" y="50" name="HHVLPPDB"/>
      <point x="248" y="50" type="curve" smooth="yes" name="NPPXLPPU"/>
      <point x="206" y="50" name="LERKJJGE"/>
      <point x="159" y="57" name="KOTVMJTY"/>
      <point x="114" y="72" type="curve" smooth="yes" name="DWMIMROU"/>
    </contour>
    <contour>
      <point x="474" y="664" type="move" name="EWUQYEMC"/>
      <point x="412" y="608" type="line" name="ETXCAUEY"/>
      <point x="474" y="500" type="line" name="NTXTMFBH"/>
    </contour>
    <contour>
      <point x="52" y="15" type="move" name="UGLJWSZS"/>
      <point x="114" y="72" type="line" name="PTEDOLQL"/>
      <point x="52" y="181" type="line" name="JUZIRJHP"/>
    </contour>
    <contour>
      <point x="248" y="50" type="move" name="WYBTYPBI"/>
      <point x="245.0" y="-20" name="AXGROSJG"/>
      <point x="265" y="-44" name="NLHKXSMG"/>
      <point x="299" y="-67" type="curve" smooth="yes" name="XNJCJCFJ"/>
      <point x="321" y="-82" name="TSQTYTRN"/>
      <point x="344" y="-95" name="IEFTVZEN"/>
      <point x="344" y="-129" type="curve" smooth="yes" name="PKQJADWQ"/>
      <point x="344" y="-171" name="IIWYZJKC"/>
      <point x="314" y="-195" name="RWUAYOYC"/>
      <point x="266" y="-195" type="curve" smooth="yes" name="NJSDBLKJ"/>
      <point x="246" y="-195" name="GADRHQPL"/>
      <point x="222" y="-191" name="ATSXAPYK"/>
      <point x="196" y="-183" type="curve" smooth="yes" name="YJNCCQEV"/>
    </contour>
    <contour>
      <point x="146" y="-107" type="move" name="YCSEVMVV"/>
      <point x="196" y="-183" type="line" name="BWMMRKMR"/>
      <point x="146" y="-220" type="line" name="VOGLHFBE"/>
    </contour>
    <contour>
      <point x="202" y="-12" type="move" name="TNTETMZL"/>
      <point x="248.0" y="50.0" type="line" name="VKRVUYVD"/>
      <point x="306" y="-8" type="line" name="QVURVLCH"/>
    </contour>
  </outline>
</glyph>
<glyph name="scedilla" format="2">
  <advance width="495"/>
  <unicode hex="015F"/>
  <outline>
    <contour>
      <point x="114" y="69" type="move" smooth="yes" name="QEXQCLXP"/>
      <point x="152" y="55" name="WPRMMDRD"/>
      <point x="190" y="47" name="NKJPHRQK"/>
      <point x="225" y="47" type="curve" smooth="yes" name="MTBAAGJC"/>
      <point x="326" y="47.0" name="REJSEOGK"/>
      <point x="391.0" y="91" name="SGFFCVPQ"/>
      <point x="391" y="164" type="curve" smooth="yes" name="ZNFVJGGM"/>
      <point x="391" y="234" name="LORTKWVP"/>
      <point x="323" y="263" name="UZTPOQJP"/>
      <point x="256" y="290" type="curve" smooth="yes" name="XECKAHOA"/>
      <point x="190" y="317" name="GINLPLUR"/>
      <point x="121" y="346" name="ODWBLNXO"/>
      <point x="121" y="418" type="curve" smooth="yes" name="KAHFGFRT"/>
      <point x="121" y="486" name="DHVBPXFQ"/>
      <point x="181" y="531" name="YHBOJRSB"/>
      <point x="276" y="531" type="curve" smooth="yes" name="VYCEZKVJ"/>
      <point x="307" y="531" name="IQTDKISY"/>
      <point x="340" y="524" name="ABBNCXNV"/>
      <point x="372" y="513" type="curve" smooth="yes" name="MXEYNKXJ"/>
    </contour>
    <contour>
      <point x="434" y="564" type="move" name="YLHZFNTF"/>
      <point x="372" y="513" type="line" name="GBAJDDLT"/>
      <point x="434" y="406" type="line" name="ORALJYSH"/>
    </contour>
    <contour>
      <point x="52" y="15" type="move" name="DFDATFPN"/>
      <point x="114" y="69" type="line" name="JNQYRVWM"/>
      <point x="52" y="175" type="line" name="FIGUIEVH"/>
    </contour>
    <contour>
      <point x="225" y="47" type="move" smooth="yes" name="DXMPGCIB"/>
      <point x="213" y="-25" name="BZENWGMK"/>
      <point x="243" y="-48" name="GMTZORDQ"/>
      <point x="271" y="-67" type="curve" smooth="yes" name="HTJALBEP"/>
      <point x="294" y="-82" name="UIDTFSRI"/>
      <point x="316" y="-95" name="WIPZWOOC"/>
      <point x="316" y="-129" type="curve" smooth="yes" name="ZUWJHIOP"/>
      <point x="316" y="-171" name="CCQMWWUX"/>
      <point x="286" y="-195" name="AAVVDNRD"/>
      <point x="238" y="-195" type="curve" smooth="yes" name="AVNHRENY"/>
      <point x="218" y="-195" name="GNXINIUB"/>
      <point x="194" y="-191" name="VMUGSNPI"/>
      <point x="168" y="-183" type="curve" name="KQLIUTER"/>
    </contour>
    <contour>
      <point x="118" y="-107" type="move" name="RTSDUZSG"/>
      <point x="168" y="-183" type="line" name="AJCNBBHV"/>
      <point x="118" y="-220" type="line" name="THWDMPGV"/>
    </contour>
    <contour>
      <point x="174.0" y="-10.0" type="move" name="TNTETMZL"/>
      <point x="225.0" y="47.0" type="line" name="VKRVUYVD"/>
      <point x="279.0" y="-9.0" type="line" name="QVURVLCH"/>
    </contour>
  </outline>
</glyph>
<glyph name="Tcedilla" format="2">
  <advance width="549"/>
  <unicode hex="0162"/>
  <outline>
    <contour>
      <point x="462" y="616" type="move" name="AZAZTMRD"/>
      <point x="274" y="616" type="line" name="AOHKQSEO"/>
      <point x="87" y="616" type="line" name="VZQVXEKU"/>
    </contour>
    <contour>
      <point x="274" y="616" type="move" name="VXXZXSUE"/>
      <point x="274" y="62" type="line" name="XZVUXEZD"/>
      <point x="274" y="1" name="RLUUHIOC"/>
      <point x="263" y="-36" name="QALBZIXE"/>
      <point x="305" y="-62" type="curve" smooth="yes" name="TEKFGRMA"/>
      <point x="334" y="-81" name="USQJFGKW"/>
      <point x="357" y="-95" name="RPHIFUXC"/>
      <point x="357" y="-129" type="curve" smooth="yes" name="PVDCCCRW"/>
      <point x="357" y="-171" name="JLJOZULG"/>
      <point x="327" y="-195" name="EFEXKVDK"/>
      <point x="279" y="-195" type="curve" smooth="yes" name="HANIERQU"/>
      <point x="259" y="-195" name="WRUAYQID"/>
      <point x="235" y="-191" name="TTUGUSKN"/>
      <point x="209" y="-183" type="curve" smooth="yes" name="PFIXYHUW"/>
    </contour>
    <contour>
      <point x="373" y="0" type="move" name="MIXJODID"/>
      <point x="274" y="62" type="line" name="LMGDIEDD"/>
      <point x="176" y="0" type="line" name="QEDZPQCJ"/>
    </contour>
    <contour>
      <point x="524" y="680" type="move" name="DYQWZGQV"/>
      <point x="462" y="616" type="line" name="MPBIVEYI"/>
      <point x="524" y="524" type="line" name="PFLNESTO"/>
    </contour>
    <contour>
      <point x="25" y="524" type="move" name="OVFDHOCR"/>
      <point x="87" y="616" type="line" name="NUPCDTIY"/>
      <point x="25" y="680" type="line" name="VWTCPRGT"/>
    </contour>
    <contour>
      <point x="200" y="553" type="move" name="IAVMIOHF"/>
      <point x="274" y="616" type="line" name="WVOMXCLA"/>
      <point x="349" y="553" type="line" name="XDDURMZR"/>
    </contour>
    <contour>
      <point x="159" y="-107" type="move" name="EITWUQSI"/>
      <point x="209" y="-183" type="line" name="PPGFLODN"/>
      <point x="159" y="-220" type="line" name="WPHNNTUB"/>
    </contour>
    <contour>
      <point x="214" y="0" type="move" name="BUHLHDNR"/>
      <point x="274.0" y="62.0" type="line" name="SWFSZQES"/>
      <point x="315" y="0" type="line" name="RGIRMPRB"/>
    </contour>
  </outline>
</glyph>
<glyph name="tbar" format="2">
  <advance width="513"/>
  <unicode hex="0167"/>
  <outline>
    <contour>
      <point x="431" y="514" type="move" smooth="yes" name="NKHVAWFK"/>
      <point x="391" y="518" name="PLELAUPC"/>
      <point x="336" y="520" name="NSWTNSCK"/>
      <point x="256" y="520" type="curve" name="OTOUSEXD"/>
      <point x="177" y="520" name="KBQXGEUE"/>
      <point x="122" y="518" name="QWTEAYNH"/>
      <point x="82" y="514" type="curve" smooth="yes" name="OOJKFXCG"/>
    </contour>
    <contour>
      <point x="256" y="520" type="move" name="XDGNPDEP"/>
      <point x="256.0" y="284.0" type="line" name="CENGHMQF"/>
      <point x="256" y="62" type="line" name="XPVSQQSM"/>
    </contour>
    <contour>
      <point x="352" y="0" type="move" name="CEZKNGQM"/>
      <point x="256" y="62" type="line" name="PWIUNWLZ"/>
      <point x="161" y="0" type="line" name="PNQEINOA"/>
    </contour>
    <contour>
      <point x="493" y="580" type="move" name="OROOLRBM"/>
      <point x="431" y="514" type="line" name="WNRRHRKG"/>
      <point x="493" y="430" type="line" name="EPFSEUTY"/>
    </contour>
    <contour>
      <point x="20" y="430" type="move" name="VJVFZWUB"/>
      <point x="82" y="514" type="line" name="ACLETCGV"/>
      <point x="20" y="580" type="line" name="EAHZROVQ"/>
    </contour>
    <contour>
      <point x="185" y="459" type="move" name="GQRRFPDD"/>
      <point x="256" y="520" type="line" name="SIHADPNE"/>
      <point x="328" y="459" type="line" name="GXNTQBMM"/>
    </contour>
    <contour>
      <point x="256.0" y="284.0" type="move" name="QVLFLSUZ"/>
    </contour>
    <contour>
      <point x="376" y="284" type="move" name="FAGEQFYM"/>
      <point x="256.0" y="284.0" type="line" name="ZFRDETDG"/>
      <point x="256.0" y="284.0" type="line" name="QZAVUURY"/>
      <point x="137" y="284" type="line" name="VSUXIJJD"/>
    </contour>
    <contour>
      <point x="79.0" y="226.0" type="move" name="ENJCVZWE"/>
      <point x="137.0" y="284.0" type="line" name="GEXRKELV"/>
      <point x="79.0" y="343.0" type="line" name="JSDVNTUO"/>
    </contour>
    <contour>
      <point x="434.0" y="343.0" type="move" name="DCLRFTLZ"/>
      <point x="376.0" y="284.0" type="line" name="PCZKBLFT"/>
      <point x="434.0" y="226.0" type="line" name="CFZONUCO"/>
    </contour>
    <contour>
      <point x="188.0" y="343.0" type="move" name="ZPPPYRHI"/>
      <point x="256.0" y="284.0" type="line" name="NRLOENSG"/>
      <point x="325.0" y="226.0" type="line" name="CRDXPDHW"/>
    </contour>
    <contour>
      <point x="188.0" y="226.0" type="move" name="TYTMXXNS"/>
      <point x="256.0" y="284.0" type="line" name="NTLUWVWV"/>
      <point x="325.0" y="343.0" type="line" name="GQVEBRXV"/>
    </contour>
  </outline>
</glyph>
<glyph name="Schwa" format="2">
  <advance width="682"/>
  <unicode hex="018F"/>
  <outline>
    <contour>
      <point x="146" y="598" type="move" smooth="yes" name="RZTSEFVK"/>
      <point x="204" y="619" name="ZHDFWBFN"/>
      <point x="259" y="629" name="MBZDVTNB"/>
      <point x="309" y="629" type="curve" smooth="yes" name="FZYLDRPU"/>
      <point x="462" y="629" name="XUCSVLUV"/>
      <point x="569" y="534" name="ZLFFIOQX"/>
      <point x="569" y="350" type="curve" smooth="yes" name="DYZJJDHR"/>
      <point x="569" y="162" name="THMGVAHW"/>
      <point x="467" y="50" name="WIPSLLOY"/>
      <point x="328" y="50" type="curve" smooth="yes" name="KLBNWDVB"/>
      <point x="184" y="50" name="NBPNUMLW"/>
      <point x="94" y="173" name="VKJDMGKI"/>
      <point x="109" y="350" type="curve" name="DKCPPKST"/>
      <point x="569" y="350" type="line" name="DKDASZYY"/>
    </contour>
    <contour>
      <point x="84.0" y="500.0" type="move" name="WKQKAAJP"/>
      <point x="146.0" y="598.0" type="line" name="TZVJVNTG"/>
      <point x="84.0" y="644.0" type="line" name="OKVFBFVI"/>
    </contour>
    <contour>
      <point x="46.0" y="410.0" type="move" name="DGEMQWAD"/>
      <point x="109.0" y="350.0" type="line" name="AUITEDDY"/>
      <point x="177.0" y="289.0" type="line" name="OVXAZZXQ"/>
    </contour>
    <contour>
      <point x="488.0" y="410.0" type="move" name="OVMHVDAY"/>
      <point x="569.0" y="350.0" type="line" name="FKWCRPKO"/>
      <point x="490.0" y="289.0" type="line" name="CJZGQXPL"/>
    </contour>
  </outline>
</glyph>
<glyph name="ecedilla" format="2">
  <advance width="484"/>
  <unicode hex="0229"/>
  <anchor x="244" y="580" name="above"/>
  <outline>
    <contour>
      <point x="331" y="300" type="move" name="CICHUSXK"/>
      <point x="146" y="300" type="line" name="NJETCQRE"/>
    </contour>
    <contour>
      <point x="358" y="514" type="move" smooth="yes" name="YIJRQYXC"/>
      <point x="294" y="519" name="VJEHZRKQ"/>
      <point x="198" y="522" name="IANXWSND"/>
      <point x="146" y="519" type="curve" name="BTUNAMTW"/>
      <point x="146" y="300" type="line" name="OQDOSWDY"/>
      <point x="146" y="61" type="line" name="LQNMDNKK"/>
      <point x="168" y="60" name="TCURMLVP"/>
      <point x="198" y="59" name="UFRROVVW"/>
      <point x="230" y="60" type="curve" smooth="yes" name="WJBUNFGC"/>
      <point x="273" y="60" name="LCIDWTXK"/>
      <point x="319" y="63" name="EKLTEODI"/>
      <point x="356" y="66" type="curve" smooth="yes" name="AQNNCKZT"/>
    </contour>
    <contour>
      <point x="420" y="580" type="move" name="IIYOJRYX"/>
      <point x="358" y="514" type="line" name="BUWWFJIJ"/>
      <point x="420" y="431" type="line" name="DMOCMXSX"/>
    </contour>
    <contour>
      <point x="438" y="160" type="move" name="NFCLXEKZ"/>
      <point x="356" y="66" type="line" name="DGWJLFZR"/>
      <point x="418" y="0" type="line" name="RDJQSJBO"/>
    </contour>
    <contour>
      <point x="393" y="379" type="move" name="UBWSCXEJ"/>
      <point x="331" y="300" type="line" name="OGPDTMUS"/>
      <point x="393" y="222" type="line" name="JMWBMAFS"/>
    </contour>
    <contour>
      <point x="50" y="580" type="move" name="LZXKDDDL"/>
      <point x="146" y="519" type="line" name="XKKFLDUD"/>
      <point x="217" y="461" type="line" name="UIJAQXHG"/>
    </contour>
    <contour>
      <point x="50" y="0" type="move" name="MDSIAWQI"/>
      <point x="146" y="61" type="line" name="HDDCNYEO"/>
      <point x="218" y="119" type="line" name="APMWXQKH"/>
    </contour>
    <contour>
      <point x="214" y="357" type="move" name="YKWNNPJU"/>
      <point x="146" y="300" type="line" name="QLSMBTNH"/>
      <point x="214" y="243" type="line" name="ZFXAFKKW"/>
    </contour>
    <contour>
      <point x="230" y="60" type="move" smooth="yes" name="OLDAIIVV"/>
      <point x="215" y="-7" name="FYEWBGPK"/>
      <point x="233" y="-38" name="IIRBMZQP"/>
      <point x="267" y="-62" type="curve" smooth="yes" name="UHSRLFRA"/>
      <point x="296" y="-83" name="MQMSVAPV"/>
      <point x="319" y="-95" name="IUIFPDTE"/>
      <point x="319" y="-129" type="curve" smooth="yes" name="XQJGTZHR"/>
      <point x="319" y="-171" name="NLQUTCOL"/>
      <point x="289" y="-195" name="EZBVAJWJ"/>
      <point x="241" y="-195" type="curve" smooth="yes" name="WWOLPQNF"/>
      <point x="221" y="-195" name="DGSMGJPG"/>
      <point x="197" y="-191" name="ROYAFZWP"/>
      <point x="171" y="-183" type="curve" name="NRPOBOMO"/>
    </contour>
    <contour>
      <point x="121" y="-107" type="move" name="RTSDUZSG"/>
      <point x="171" y="-183" type="line" name="AJCNBBHV"/>
      <point x="121" y="-220" type="line" name="THWDMPGV"/>
    </contour>
    <contour>
      <point x="176.0" y="0.0" type="move" name="FEXHXMPN"/>
      <point x="230.0" y="60.0" type="line" name="RDJIKFBA"/>
      <point x="277.0" y="0.0" type="line" name="NJACMRIY"/>
    </contour>
  </outline>
</glyph>
<glyph name="ringhalfrightmod" format="2">
  <advance width="300"/>
  <unicode hex="02BE"/>
  <outline>
    <contour>
      <point x="85" y="796" type="move" name="TLDKHEST"/>
      <point x="119" y="755" type="line" name="ODYHFAND"/>
      <point x="85" y="723" type="line" name="AHQFJYUT"/>
    </contour>
    <contour>
      <point x="119" y="755" type="move" smooth="yes" name="RGTFPOEC"/>
      <point x="152" y="743" name="QDDULHID"/>
      <point x="173" y="714" name="XXSTNTMH"/>
      <point x="173" y="677" type="curve" smooth="yes" name="IMTSZTUN"/>
      <point x="173.0" y="640.0" name="OTMHMBSP"/>
      <point x="152.0" y="611.0" name="GYTJOBPA"/>
      <point x="119.0" y="599.0" type="curve" smooth="yes" name="HLEVYTYB"/>
    </contour>
    <contour>
      <point x="85.0" y="631.0" type="move" name="MVWAUIRC"/>
      <point x="119.0" y="599.0" type="line" name="DBJTKUYC"/>
      <point x="85.0" y="558.0" type="line" name="CUWNIQKE"/>
    </contour>
  </outline>
</glyph>
<glyph name="ringhalfleftmod" format="2">
  <advance width="300"/>
  <unicode hex="02BF"/>
  <outline>
    <contour>
      <point x="214.0" y="723.0" type="move" name="IDUMOZMX"/>
      <point x="180.0" y="755.0" type="line" name="BBGUTNWX"/>
      <point x="214.0" y="796.0" type="line" name="RMSLGROJ"/>
    </contour>
    <contour>
      <point x="180.0" y="599.0" type="move" smooth="yes" name="LRXRYDBJ"/>
      <point x="147.0" y="611.0" name="OANAFBAX"/>
      <point x="126.0" y="640.0" name="DEGWVDAJ"/>
      <point x="126.0" y="677.0" type="curve" smooth="yes" name="DNTTWXUR"/>
      <point x="126.0" y="714.0" name="QFSTHUEE"/>
      <point x="147.0" y="743.0" name="ZICOMOFW"/>
      <point x="180.0" y="755.0" type="curve" smooth="yes" name="WPQEQUHJ"/>
    </contour>
    <contour>
      <point x="214.0" y="558.0" type="move" name="HYCMDWTV"/>
      <point x="180.0" y="599.0" type="line" name="YIVYCEMG"/>
      <point x="214.0" y="631.0" type="line" name="GMZBSFNE"/>
    </contour>
  </outline>
</glyph>
<glyph name="verticallinemod" format="2">
  <advance width="300"/>
  <unicode hex="02C8"/>
  <outline>
    <contour>
      <point x="150.0" y="629.0" type="move" name="XFQSGUZY"/>
      <point x="150.0" y="439.0" type="line" name="VFHEFJVF"/>
    </contour>
    <contour>
      <point x="84" y="680" type="move" name="MDXJOCSX"/>
      <point x="150" y="629" type="line" name="KQROCMUS"/>
      <point x="217.0" y="680.0" type="line" name="OVVBQMCZ"/>
    </contour>
    <contour>
      <point x="187.0" y="398.0" type="move" name="OBICMQQE"/>
      <point x="150.0" y="439.0" type="line" name="STLXDPZP"/>
      <point x="114.0" y="398.0" type="line" name="XSQCIFDL"/>
    </contour>
  </outline>
</glyph>
<glyph name="circumflexcmb" format="2">
  <unicode hex="0302"/>
  <anchor x="0" y="517" name="_above"/>
  <anchor x="0" y="718" name="above"/>
  <anchor x="154" y="670" name="aboveright"/>
  <outline>
    <contour>
      <point x="61.0" y="640.0" type="move" name="OSSWFNFQ"/>
      <point x="2" y="695" type="line" name="XRSOOUGN"/>
      <point x="-59.0" y="640.0" type="line" name="FRBFZBBL"/>
    </contour>
    <contour>
      <point x="-51.0" y="580.0" type="move" name="QZHLCAPA"/>
      <point x="-59.0" y="640.0" type="line" name="ZNTFRXIV"/>
      <point x="-200.0" y="580.0" type="line" name="HKWPAMJA"/>
    </contour>
    <contour>
      <point x="202.0" y="580.0" type="move" name="VUHTHKMM"/>
      <point x="61.0" y="640.0" type="line" name="WAQJMCYE"/>
      <point x="53.0" y="580.0" type="line" name="SESZYTEB"/>
    </contour>
    <contour>
      <point x="2.0" y="761.0" type="move" name="FWLRTABL"/>
      <point x="2.0" y="695.0" type="line" name="LORIICGJ"/>
      <point x="2.0" y="629.0" type="line" name="PZGPJTMY"/>
    </contour>
  </outline>
</glyph>
<glyph name="tildecmb" format="2">
  <unicode hex="0303"/>
  <anchor x="0.3999999999999999" y="517" name="_above"/>
  <anchor x="0" y="736" name="above"/>
  <outline>
    <contour>
      <point x="-121" y="624" type="move" smooth="yes" name="YKCLWSCI"/>
      <point x="-114" y="668" name="JVENJISG"/>
      <point x="-91" y="688" name="BHYPMJFQ"/>
      <point x="-58" y="688" type="curve" smooth="yes" name="SWXIOUBT"/>
      <point x="-32" y="688" name="GMYYFYOH"/>
      <point x="-13" y="673" name="TNSJLWUC"/>
      <point x="5" y="659" type="curve" smooth="yes" name="XCLNAALH"/>
      <point x="23" y="645" name="MEXUTJOP"/>
      <point x="41" y="632" name="TJGKPNFJ"/>
      <point x="66" y="632" type="curve" smooth="yes" name="KAREIKKB"/>
      <point x="100" y="632" name="ABCZUJQV"/>
      <point x="123" y="653" name="WRLSBLGT"/>
      <point x="129" y="696" type="curve" smooth="yes" name="HVIHLMOB"/>
    </contour>
    <contour>
      <point x="-82.0" y="578.0" type="move" name="ACVZCJDY"/>
      <point x="-121.0" y="624.0" type="line" name="XYVXJBOW"/>
      <point x="-163.0" y="578.0" type="line" name="KAZOPPGX"/>
    </contour>
    <contour>
      <point x="90.0" y="742.0" type="move" name="KLDTTCWL"/>
      <point x="129.0" y="696.0" type="line" name="FVAHFJYC"/>
      <point x="171.0" y="742.0" type="line" name="HMMDRQEC"/>
    </contour>
  </outline>
</glyph>
<glyph name="macroncmb" format="2">
  <unicode hex="0304"/>
  <anchor x="0" y="517" name="_above"/>
  <anchor x="0" y="694" name="above"/>
  <outline>
    <contour>
      <point x="-166" y="701" type="move" name="FHZOWKXI"/>
      <point x="-106.0" y="640.0" type="line" name="GOGAUBFP"/>
      <point x="-166.0" y="580.0" type="line" name="ZQYIMDIL"/>
    </contour>
    <contour>
      <point x="-106.0" y="640.0" type="move" name="UVDYFKFO"/>
      <point x="107.0" y="640.0" type="line" name="SQKFGMHE"/>
    </contour>
    <contour>
      <point x="167.0" y="580.0" type="move" name="BLWWLWTB"/>
      <point x="107.0" y="640.0" type="line" name="QLXLKEMI"/>
      <point x="167.0" y="701.0" type="line" name="GWVLPVTM"/>
    </contour>
  </outline>
</glyph>
<glyph name="brevecmb" format="2">
  <unicode hex="0306"/>
  <anchor x="0" y="517" name="_above"/>
  <anchor x="0" y="718" name="above"/>
  <outline>
    <contour>
      <point x="111" y="694" type="move" smooth="yes" name="PBAPCDRI"/>
      <point x="95" y="651" name="XWXJZBAZ"/>
      <point x="58" y="624" name="QQKWAXUQ"/>
      <point x="0" y="624" type="curve" smooth="yes" name="EVLNEOJX"/>
      <point x="-58" y="624" name="YPSBKIDQ"/>
      <point x="-95" y="651" name="JXXFQSDR"/>
      <point x="-111" y="694" type="curve" smooth="yes" name="PMAYSKPY"/>
    </contour>
    <contour>
      <point x="65.0" y="744.0" type="move" name="BLSCMVAV"/>
      <point x="111.0" y="694.0" type="line" name="EPYMQGWI"/>
      <point x="173.0" y="744.0" type="line" name="VEUHJXMD"/>
    </contour>
    <contour>
      <point x="-173.0" y="744.0" type="move" name="TATSQTFP"/>
      <point x="-111.0" y="694.0" type="line" name="SMFXPQOY"/>
      <point x="-65.0" y="744.0" type="line" name="XJEGEOJL"/>
    </contour>
  </outline>
</glyph>
<glyph name="hookabovecmb" format="2">
  <unicode hex="0309"/>
  <anchor x="0" y="517" name="_above"/>
  <anchor x="0" y="793" name="above"/>
  <anchor x="0" y="517" name="_aboveright"/>
  <outline>
    <contour>
      <point x="-17" y="607" type="move" smooth="yes" name="CCNKLPDL"/>
      <point x="29" y="619" name="NWVRFDZJ"/>
      <point x="59" y="643" name="GYHHMZHY"/>
      <point x="59" y="688" type="curve" smooth="yes" name="AFHYTAFH"/>
      <point x="59" y="739" name="JFPDTUZR"/>
      <point x="15" y="764" name="KAZCGRJX"/>
      <point x="-44" y="761" type="curve" smooth="yes" name="XMKUXPCM"/>
    </contour>
    <contour>
      <point x="-94.0" y="798.0" type="move" name="TARBNJHZ"/>
      <point x="-44.0" y="761.0" type="line" name="YXOUZBND"/>
      <point x="-94.0" y="708.0" type="line" name="WITDDYWY"/>
    </contour>
    <contour>
      <point x="-67.0" y="639.0" type="move" name="RJQWGJCK"/>
      <point x="-17.0" y="607.0" type="line" name="FWJMCZOZ"/>
      <point x="-67.0" y="558.0" type="line" name="ANLMCVDS"/>
    </contour>
  </outline>
</glyph>
<glyph name="ringabovecmb" format="2">
  <unicode hex="030A"/>
  <anchor x="0" y="517" name="_above"/>
  <anchor x="0" y="708" name="above"/>
  <outline>
    <contour>
      <point x="-1" y="595" type="curve" smooth="yes" name="EEAQCOIO"/>
      <point x="-53" y="595" name="EZBCKZLX"/>
      <point x="-89" y="629" name="QNSURRHM"/>
      <point x="-89" y="678" type="curve" smooth="yes" name="YBUMLBST"/>
      <point x="-89" y="726" name="RKJKQYQZ"/>
      <point x="-53" y="760" name="KUDIOIOB"/>
      <point x="-1" y="760" type="curve" smooth="yes" name="VIKOLJVL"/>
      <point x="52" y="760" name="QRQPHLTS"/>
      <point x="90" y="726" name="BKGOVRUU"/>
      <point x="90" y="678" type="curve" smooth="yes" name="PLIIBJSE"/>
      <point x="90" y="629" name="UWMHVYWU"/>
      <point x="52" y="595" name="FVQNCOYM"/>
    </contour>
  </outline>
</glyph>
<glyph name="invertedbrevecmb" format="2">
  <unicode hex="0311"/>
  <anchor x="0" y="517" name="_above"/>
  <anchor x="0" y="735" name="above"/>
  <outline>
    <contour>
      <point x="-111.0" y="630.0" type="move" smooth="yes" name="EXYGLIHH"/>
      <point x="-95.0" y="673.0" name="TAKNMBAR"/>
      <point x="-58.0" y="700.0" name="WTWGGDFO"/>
      <point x="0.0" y="700.0" type="curve" smooth="yes" name="FHGLIKFH"/>
      <point x="58.0" y="700.0" name="FSDZSZFU"/>
      <point x="95.0" y="673.0" name="UVCXJZYE"/>
      <point x="111.0" y="630.0" type="curve" smooth="yes" name="TVEPQBVB"/>
    </contour>
    <contour>
      <point x="-65.0" y="580.0" type="move" name="AXCRJBEX"/>
      <point x="-111.0" y="630.0" type="line" name="URWBJJKG"/>
      <point x="-173.0" y="580.0" type="line" name="TRYMFBVM"/>
    </contour>
    <contour>
      <point x="173.0" y="580.0" type="move" name="VKIAJLQG"/>
      <point x="111.0" y="630.0" type="line" name="MHWSJFGX"/>
      <point x="65.0" y="580.0" type="line" name="JCOKVRPY"/>
    </contour>
  </outline>
</glyph>
<glyph name="dotbelowcmb" format="2">
  <unicode hex="0323"/>
  <anchor x="0" y="0" name="_below"/>
  <anchor x="0" y="-211" name="below"/>
  <outline>
    <contour>
      <point x="-81.0" y="-60.0" type="move" name="QWGGYJHO"/>
      <point x="-1.0" y="-141.0" type="line" name="ZARVRFQM"/>
      <point x="80.0" y="-221.0" type="line" name="JWRHZBNA"/>
    </contour>
    <contour>
      <point x="80.0" y="-60.0" type="move" name="VPRWGXKF"/>
      <point x="-1.0" y="-141.0" type="line" name="JXFDOLTQ"/>
      <point x="-81.0" y="-221.0" type="line" name="OBLKGZCD"/>
    </contour>
  </outline>
</glyph>
<glyph name="commaaccentbelowcmb" format="2">
  <unicode hex="0326"/>
  <anchor x="0" y="0" name="_below"/>
  <anchor x="0" y="-218" name="below"/>
  <outline>
    <contour>
      <point x="-105" y="-252" type="move" name="UOEZTTQB"/>
      <point x="-30" y="-221" name="CAXCLTFZ"/>
      <point x="2" y="-164" name="YNYWFINB"/>
      <point x="9" y="-121" type="curve" smooth="yes" name="CGMGFNGK"/>
    </contour>
    <contour>
      <point x="-70.0" y="-61.0" type="move" name="KRCRNCNH"/>
      <point x="9.0" y="-121.0" type="line" name="XOXVUVVJ"/>
      <point x="87.0" y="-61.0" type="line" name="BNCEYDCR"/>
    </contour>
  </outline>
</glyph>
<glyph name="ogonekcmb" format="2">
  <unicode hex="0328"/>
  <anchor x="0" y="0" name="_below"/>
  <anchor x="113" y="21" name="ogonek"/>
  <anchor x="0" y="-171" name="below"/>
  <outline>
    <contour>
      <point x="84" y="44" type="move" name="FVENYRFE"/>
      <point x="-14" y="16" name="TIXCEXNN"/>
      <point x="-48" y="-16" name="CLERTGBD"/>
      <point x="-48" y="-59" type="curve" smooth="yes" name="XSQPFQPJ"/>
      <point x="-48" y="-102" name="BIWPZCOX"/>
      <point x="-12" y="-128" name="RRVQMMNG"/>
      <point x="50" y="-119" type="curve" smooth="yes" name="EQOUNWFB"/>
    </contour>
    <contour>
      <point x="103.0" y="-158.0" type="move" name="BCZEFWIW"/>
      <point x="50.0" y="-119.0" type="line" name="FMNHULSM"/>
      <point x="113.0" y="-45.0" type="line" name="SJTLXCVS"/>
    </contour>
  </outline>
</glyph>
<glyph name="commercialminussign" format="2">
  <advance width="544"/>
  <unicode hex="2052"/>
  <outline>
    <contour>
      <point x="439.0" y="627.0" type="move" name="EKQWLSSK"/>
      <point x="105.0" y="53.0" type="line" name="XAIROYSU"/>
    </contour>
    <contour>
      <point x="58.0" y="613.0" type="move" name="KFGIGMOD"/>
      <point x="138.0" y="533.0" type="line" name="PHPTNCMS"/>
      <point x="219.0" y="452.0" type="line" name="JYLHONKL"/>
    </contour>
    <contour>
      <point x="58.0" y="452.0" type="move" name="GMKLNRTI"/>
      <point x="138.0" y="533.0" type="line" name="BGIAKFXI"/>
      <point x="219.0" y="613.0" type="line" name="DUAAOXAS"/>
    </contour>
    <contour>
      <point x="325.0" y="228.0" type="move" name="OSPKEYYR"/>
      <point x="405.0" y="148.0" type="line" name="ATBNIRES"/>
      <point x="486.0" y="67.0" type="line" name="WXTRSQJH"/>
    </contour>
    <contour>
      <point x="325.0" y="67.0" type="move" name="LTWAUYXV"/>
      <point x="405.0" y="148.0" type="line" name="KNDXKIXP"/>
      <point x="486.0" y="228.0" type="line" name="MQCNKEXY"/>
    </contour>
    <contour>
      <point x="411.0" y="680.0" type="move" name="ECUUNSVW"/>
      <point x="439.0" y="627.0" type="line" name="WZGBHWZC"/>
      <point x="529.0" y="680.0" type="line" name="SFLOLYUF"/>
    </contour>
    <contour>
      <point x="133.0" y="0.0" type="move" name="QLWGIXUY"/>
      <point x="105.0" y="53.0" type="line" name="MBAVFUND"/>
      <point x="15.0" y="0.0" type="line" name="KLUDUNIE"/>
    </contour>
  </outline>
</glyph>
<glyph name="peseta" format="2">
  <advance width="623"/>
  <unicode hex="20A7"/>
  <outline>
    <contour>
      <point x="156.0" y="62.0" type="move" name="EGZGGUAW"/>
      <point x="156.0" y="232.0" type="line" name="FWPCKYBS"/>
      <point x="156" y="424" type="line" name="XIQBGCRO"/>
      <point x="156.0" y="618.0" type="line" name="OFQMGDMB"/>
      <point x="277" y="618" type="line" smooth="yes" name="PGQPDHLM"/>
      <point x="400" y="618" name="LQPIVBBL"/>
      <point x="474" y="539" name="YFLBCKJZ"/>
      <point x="474" y="424" type="curve" smooth="yes" name="ZXOKRCLP"/>
      <point x="474" y="309" name="EPNXSVVU"/>
      <point x="400" y="232" name="YENSOGCV"/>
      <point x="277" y="232" type="curve" smooth="yes" name="ZMDTCOND"/>
      <point x="156.0" y="232.0" type="line" name="IHYTHFKO"/>
    </contour>
    <contour>
      <point x="547.0" y="424.0" type="move" name="DVQEOPHO"/>
      <point x="81.0" y="424.0" type="line" name="ACFFAASK"/>
    </contour>
    <contour>
      <point x="227.0" y="295.0" type="move" name="NZIPSIFI"/>
      <point x="156.0" y="232.0" type="line" name="FJZWZVMD"/>
      <point x="229.0" y="170.0" type="line" name="DBOEHPBN"/>
    </contour>
    <contour>
      <point x="254.0" y="0.0" type="move" name="GQEBCOAZ"/>
      <point x="156.0" y="62.0" type="line" name="RVXQFERL"/>
      <point x="57" y="0" type="line" name="NULDVGCI"/>
    </contour>
    <contour>
      <point x="57" y="680" type="move" name="ZVBVDJCT"/>
      <point x="156.0" y="618.0" type="line" name="BHLPCOXF"/>
      <point x="231.0" y="555.0" type="line" name="GYPAULBB"/>
    </contour>
    <contour>
      <point x="83.0" y="472.0" type="move" name="LQTHAYVM"/>
      <point x="156.0" y="424.0" type="line" name="OETKPTHN"/>
      <point x="227.0" y="377.0" type="line" name="ZPXQQCJG"/>
    </contour>
    <contour>
      <point x="84.0" y="377.0" type="move" name="KPVDDEFD"/>
      <point x="156.0" y="424.0" type="line" name="ZBJBYHVQ"/>
      <point x="228.0" y="472.0" type="line" name="OJQODURH"/>
    </contour>
    <contour>
      <point x="30.0" y="472.0" type="move" name="OBIQTODI"/>
      <point x="81.0" y="424.0" type="line" name="FTGKXYMB"/>
      <point x="30.0" y="377.0" type="line" name="OCPMLLXE"/>
    </contour>
    <contour>
      <point x="598.0" y="377.0" type="move" name="CLUFATFN"/>
      <point x="547.0" y="424.0" type="line" name="PMIRJOBA"/>
      <point x="598.0" y="472.0" type="line" name="QHFNLFQL"/>
    </contour>
    <contour>
      <point x="544.0" y="377.0" type="move" name="HZMHXRGF"/>
      <point x="474.0" y="424.0" type="line" name="EJNHIGDX"/>
      <point x="394.0" y="472.0" type="line" name="MNRWNAZA"/>
    </contour>
    <contour>
      <point x="395.0" y="377.0" type="move" name="VXLBMVJX"/>
      <point x="474.0" y="424.0" type="line" name="RUUJJXLD"/>
      <point x="545.0" y="472.0" type="line" name="YEWVQAAA"/>
    </contour>
  </outline>
</glyph>
<glyph name="Euro" format="2">
  <advance width="621"/>
  <unicode hex="20AC"/>
  <outline>
    <contour>
      <point x="499" y="614" type="move" smooth="yes" name="MPQFUBCK"/>
      <point x="473" y="622" name="OSCDZUIW"/>
      <point x="446" y="626" name="DQLOAVET"/>
      <point x="418" y="626" type="curve" smooth="yes" name="YRQFTBSE"/>
      <point x="290" y="626" name="GDENHNID"/>
      <point x="200" y="545" name="QCOMYWCO"/>
      <point x="175" y="416" type="curve" smooth="yes" name="YEWGJDND"/>
      <point x="165" y="369" name="JSLEISHQ"/>
      <point x="165" y="313" name="LZDQWRXX"/>
      <point x="175" y="266" type="curve" smooth="yes" name="YLLJCCJQ"/>
      <point x="199" y="136" name="FGMLHHAM"/>
      <point x="289" y="54" name="UCPHAZJU"/>
      <point x="418" y="54" type="curve" smooth="yes" name="GJBBWZNU"/>
      <point x="446" y="54" name="WZQXQMNC"/>
      <point x="473" y="58" name="XFRGBCNZ"/>
      <point x="499" y="66" type="curve" smooth="yes" name="YDRBGPYJ"/>
    </contour>
    <contour>
      <point x="425" y="416" type="move" name="OWSVLLHP"/>
      <point x="175" y="416" type="line" name="KPLGLPXD"/>
      <point x="82" y="416" type="line" name="CFKJFCFE"/>
    </contour>
    <contour>
      <point x="406" y="266" type="move" name="SZXAXJSG"/>
      <point x="175" y="266" type="line" name="OLFDWKMO"/>
      <point x="82" y="266" type="line" name="FZGMGNBK"/>
    </contour>
    <contour>
      <point x="561.0" y="666.0" type="move" name="ZVSPBBMH"/>
      <point x="499.0" y="614.0" type="line" name="PJYICBXU"/>
      <point x="561.0" y="510.0" type="line" name="JTRIQKLW"/>
    </contour>
    <contour>
      <point x="561.0" y="170.0" type="move" name="IQVNJISR"/>
      <point x="499.0" y="66.0" type="line" name="MBLKTCQA"/>
      <point x="561.0" y="14.0" type="line" name="LMCNVRTT"/>
    </contour>
    <contour>
      <point x="35.0" y="368.0" type="move" name="WIKUTZRJ"/>
      <point x="82.0" y="416.0" type="line" name="SZICGNHT"/>
      <point x="35.0" y="463.0" type="line" name="QKEACRXT"/>
    </contour>
    <contour>
      <point x="35.0" y="218.0" type="move" name="SUZZOKEO"/>
      <point x="82.0" y="266.0" type="line" name="XBVVLPND"/>
      <point x="35.0" y="313.0" type="line" name="PWTLDEAV"/>
    </contour>
    <contour>
      <point x="478.0" y="463.0" type="move" name="DLAIUOCS"/>
      <point x="425.0" y="416.0" type="line" name="ZDKPFLJK"/>
      <point x="467.0" y="368.0" type="line" name="BDLITBAX"/>
    </contour>
    <contour>
      <point x="459.0" y="313.0" type="move" name="EKFVPFOH"/>
      <point x="406.0" y="266.0" type="line" name="WCGTVOPP"/>
      <point x="448.0" y="218.0" type="line" name="KUMDYKUE"/>
    </contour>
    <contour>
      <point x="264.0" y="463.0" type="move" name="ZEOMAZYG"/>
      <point x="175.0" y="416.0" type="line" name="XWCVVFAJ"/>
      <point x="97.0" y="368.0" type="line" name="KHEDZECO"/>
    </contour>
    <contour>
      <point x="113.0" y="463.0" type="move" name="FVJPEVZO"/>
      <point x="175.0" y="416.0" type="line" name="EARABCEB"/>
      <point x="242.0" y="368.0" type="line" name="BPCTETZK"/>
    </contour>
    <contour>
      <point x="97.0" y="313.0" type="move" name="OEDLXOZQ"/>
      <point x="175.0" y="266.0" type="line" name="UIMYTFRL"/>
      <point x="264.0" y="218.0" type="line" name="HBPZNNHM"/>
    </contour>
    <contour>
      <point x="242.0" y="313.0" type="move" name="YXQVBAZV"/>
      <point x="175.0" y="266.0" type="line" name="OFAFFQVM"/>
      <point x="113.0" y="218.0" type="line" name="QARCSZQC"/>
    </contour>
  </outline>
</glyph>
<glyph name="kip" format="2">
  <advance width="607"/>
  <unicode hex="20AD"/>
  <outline>
    <contour>
      <point x="166.0" y="618.0" type="move" name="MFTJDFGH"/>
      <point x="166" y="352" type="line" name="ADMCKHCL"/>
      <point x="166.0" y="62.0" type="line" name="RRMGBCVU"/>
    </contour>
    <contour>
      <point x="467.0" y="618.0" type="move" name="QCDUSQKF"/>
      <point x="278" y="352" type="line" name="KFERESOO"/>
      <point x="469.0" y="62.0" type="line" name="RPRUCMCA"/>
    </contour>
    <contour>
      <point x="475.0" y="352.0" type="move" name="ZVIEDZYI"/>
      <point x="278.0" y="352.0" type="line" name="QHOJJMXQ"/>
      <point x="81.0" y="352.0" type="line" name="NBCYOKXA"/>
    </contour>
    <contour>
      <point x="30.0" y="407.0" type="move" name="XTVDSDAX"/>
      <point x="81.0" y="352.0" type="line" name="GKIPVLHU"/>
      <point x="30.0" y="297.0" type="line" name="QEEPDFSV"/>
    </contour>
    <contour>
      <point x="264" y="0" type="move" name="JZAMLXUJ"/>
      <point x="166" y="62" type="line" name="VXSPDWOF"/>
      <point x="67" y="0" type="line" name="KEZMAWJD"/>
    </contour>
    <contour>
      <point x="67" y="680" type="move" name="XGUEJDKF"/>
      <point x="166" y="618" type="line" name="WGWTULTW"/>
      <point x="264" y="680" type="line" name="TYKUXFLT"/>
    </contour>
    <contour>
      <point x="617" y="0" type="move" name="RXLMXVAB"/>
      <point x="469" y="62" type="line" name="RCHOATFQ"/>
      <point x="402" y="0" type="line" name="MVETZLUY"/>
    </contour>
    <contour>
      <point x="412" y="680" type="move" name="HHMSHEBK"/>
      <point x="467" y="618" type="line" name="PRCDKZDD"/>
      <point x="610" y="680" type="line" name="ELDGZPTH"/>
    </contour>
    <contour>
      <point x="526.0" y="297.0" type="move" name="HISZBORJ"/>
      <point x="475.0" y="352.0" type="line" name="YADMDZUW"/>
      <point x="526.0" y="407.0" type="line" name="FHPKVLTO"/>
    </contour>
    <contour>
      <point x="401.0" y="297.0" type="line" name="BNYHQFLW"/>
      <point x="352.0" y="352.0" type="line" name="JIFKQEZQ"/>
      <point x="390.0" y="407.0" type="line" name="GJYOCAYW"/>
      <point x="278.0" y="352.0" type="line" name="YUOZBTEV"/>
    </contour>
    <contour>
      <point x="278.0" y="352.0" type="move" name="QPZYRBFO"/>
      <point x="237.0" y="409.0" type="line" name="XSTUFNPS"/>
      <point x="166" y="352" type="line" name="UEPFUUVJ"/>
      <point x="94" y="297" type="line" name="EFAZWCQZ"/>
    </contour>
    <contour>
      <point x="94.0" y="407.0" type="move" name="SCQNSSAF"/>
      <point x="166.0" y="352.0" type="line" name="KRFACWKQ"/>
      <point x="237.0" y="295.0" type="line" name="YHAKZEAM"/>
      <point x="278.0" y="352.0" type="line" name="QNYCAFRR"/>
    </contour>
  </outline>
</glyph>
<glyph name="cedi" format="2">
  <advance width="506"/>
  <unicode hex="20B5"/>
  <outline>
    <contour>
      <point x="316.0" y="708.0" type="move" name="FQSTCMLO"/>
      <point x="309" y="601" type="line" name="TOJXNCCB"/>
    </contour>
    <contour>
      <point x="406" y="581" type="move" smooth="yes" name="YPZTXBPF"/>
      <point x="376" y="594" name="DJECINTA"/>
      <point x="344" y="602" name="JNYEBYTJ"/>
      <point x="309" y="601" type="curve" smooth="yes" name="KUMXNEPC"/>
      <point x="186" y="597" name="EHOSPBYP"/>
      <point x="104" y="494" name="RTGQFKWO"/>
      <point x="104" y="338" type="curve" smooth="yes" name="ARKZYIUO"/>
      <point x="104" y="197" name="FPEWGTEU"/>
      <point x="171" y="100" name="CTHOSBWD"/>
      <point x="276" y="81" type="curve" smooth="yes" name="PHEPVFZN"/>
      <point x="320" y="74" name="EWZHUGRJ"/>
      <point x="364" y="80" name="YUQLXGFY"/>
      <point x="406" y="97" type="curve" smooth="yes" name="CUALRNGA"/>
    </contour>
    <contour>
      <point x="276.0" y="81.0" type="move" name="CNNGCEYV"/>
      <point x="268.0" y="-38.0" type="line" name="HEYFOCQY"/>
    </contour>
    <contour>
      <point x="256.0" y="770.0" type="move" name="LVLSHJHP"/>
      <point x="316.0" y="708.0" type="line" name="ZMXOEPXF"/>
      <point x="385.0" y="770.0" type="line" name="PWXQVTUD"/>
    </contour>
    <contour>
      <point x="328.0" y="-100.0" type="move" name="BCKEKVWH"/>
      <point x="268.0" y="-38.0" type="line" name="UMSZASFG"/>
      <point x="199.0" y="-100.0" type="line" name="YXOWRAEP"/>
    </contour>
    <contour>
      <point x="248.0" y="655.0" type="move" name="LRNSKZJT"/>
      <point x="309.0" y="601.0" type="line" name="LFCKXLXC"/>
      <point x="377.0" y="656.0" type="line" name="SKJLBKLV"/>
    </contour>
    <contour>
      <point x="336.0" y="17.0" type="move" name="CVHVJLGS"/>
      <point x="276.0" y="81.0" type="line" name="WDZSCCNT"/>
      <point x="209.0" y="35.0" type="line" name="ZTUUEBKX"/>
    </contour>
    <contour>
      <point x="468.0" y="628.0" type="move" name="QCEUOGDX"/>
      <point x="406.0" y="581.0" type="line" name="IATBOOAV"/>
      <point x="468.0" y="466.0" type="line" name="FYKHSGCZ"/>
    </contour>
    <contour>
      <point x="468.0" y="212.0" type="move" name="ENHPTQAE"/>
      <point x="406.0" y="97.0" type="line" name="NNRDNCEY"/>
      <point x="468.0" y="50.0" type="line" name="RYVCWAMQ"/>
    </contour>
  </outline>
</glyph>
<glyph name="manat" format="2">
  <advance width="673"/>
  <unicode hex="20BC"/>
  <outline>
    <contour>
      <point x="532.0" y="62.0" type="move" name="XINIFSOJ"/>
      <point x="532" y="408" type="line" smooth="yes" name="DQMGTYPI"/>
      <point x="532" y="522" name="TZRGYMVL"/>
      <point x="453" y="594" name="GYFEOZHQ"/>
      <point x="336" y="594" type="curve" smooth="yes" name="QMKLCADV"/>
      <point x="219" y="594" name="DEAGOBRS"/>
      <point x="140" y="522" name="TPJILGRE"/>
      <point x="140" y="408" type="curve" smooth="yes" name="HDZPCOKV"/>
      <point x="140.0" y="62.0" type="line" name="UVHXBSLK"/>
    </contour>
    <contour>
      <point x="336.0" y="699.0" type="move" name="WBSUQBBQ"/>
      <point x="336.0" y="594.0" type="line" name="YXNTOFOY"/>
      <point x="336.0" y="143.0" type="line" name="QBFLPTCC"/>
    </contour>
    <contour>
      <point x="238.0" y="0.0" type="move" name="SFLOLYUF"/>
      <point x="140.0" y="62.0" type="line" name="WZGBHWZC"/>
      <point x="41.0" y="0.0" type="line" name="ECUUNSVW"/>
    </contour>
    <contour>
      <point x="631.0" y="0.0" type="move" name="FQNYHCGX"/>
      <point x="532.0" y="62.0" type="line" name="POROMZGU"/>
      <point x="434.0" y="0.0" type="line" name="NUKKCNGE"/>
    </contour>
    <contour>
      <point x="289.0" y="750.0" type="move" name="UQDVGEKV"/>
      <point x="336.0" y="699.0" type="line" name="VREXZJCA"/>
      <point x="384.0" y="750.0" type="line" name="PPHZPIDG"/>
    </contour>
    <contour>
      <point x="384.0" y="92.0" type="move" name="UIBGVOGF"/>
      <point x="336.0" y="143.0" type="line" name="BBOYCTTN"/>
      <point x="289.0" y="92.0" type="line" name="BQWSDAHY"/>
    </contour>
    <contour>
      <point x="384.0" y="655.0" type="move" name="GIFQJZUR"/>
      <point x="336.0" y="594.0" type="line" name="QWXLMPAW"/>
      <point x="289.0" y="522.0" type="line" name="YGQUUAOU"/>
    </contour>
    <contour>
      <point x="384.0" y="521.0" type="move" name="GMOCIDVU"/>
      <point x="336.0" y="594.0" type="line" name="YYKXWDPH"/>
      <point x="289.0" y="655.0" type="line" name="NUTWLXTG"/>
    </contour>
  </outline>
</glyph>
<glyph name="ruble" format="2">
  <advance width="574"/>
  <unicode hex="20BD"/>
  <outline>
    <contour>
      <point x="182.0" y="62.0" type="move" name="GADXVHQL"/>
      <point x="182.0" y="168.0" type="line" name="DGXOOCNN"/>
      <point x="182" y="332" type="line" name="GGLHMDQH"/>
      <point x="182" y="618" type="line" name="ZDAYNWIJ"/>
      <point x="323" y="618" type="line" smooth="yes" name="SMNBCYNO"/>
      <point x="421" y="618" name="RPRCBDLC"/>
      <point x="480" y="560" name="GBAGXKDW"/>
      <point x="480" y="475" type="curve" smooth="yes" name="HAVINNES"/>
      <point x="480" y="390" name="THKXLBXM"/>
      <point x="421" y="332.0" name="QRVWOEIB"/>
      <point x="323" y="332" type="curve" smooth="yes" name="HBWAFTKQ"/>
      <point x="182.0" y="332.0" type="line" name="BBDEHLJY"/>
      <point x="92.0" y="332.0" type="line" name="DFCPLUAK"/>
    </contour>
    <contour>
      <point x="370.0" y="168.0" type="move" name="YQZUJOCN"/>
      <point x="182.0" y="168.0" type="line" name="ZNNVMXBI"/>
      <point x="92.0" y="168.0" type="line" name="IMSQAXAB"/>
    </contour>
    <contour>
      <point x="253.0" y="395.0" type="move" name="BHAZYCJU"/>
      <point x="182.0" y="332.0" type="line" name="LKPQIGAZ"/>
      <point x="110.0" y="270.0" type="line" name="CGSXIVVA"/>
    </contour>
    <contour>
      <point x="280.0" y="0.0" type="move" name="JRLMZRMB"/>
      <point x="182.0" y="62.0" type="line" name="VWUMAPUP"/>
      <point x="83" y="0" type="line" name="XJBUXPFQ"/>
    </contour>
    <contour>
      <point x="83" y="680" type="move" name="ECUUNSVW"/>
      <point x="182.0" y="618.0" type="line" name="UHMWTTEK"/>
      <point x="257.0" y="555.0" type="line" name="WZGBHWZC"/>
    </contour>
    <contour>
      <point x="253.0" y="270.0" type="move" name="PPFLGNHQ"/>
      <point x="182.0" y="332.0" type="line" name="EASXNTAZ"/>
      <point x="110.0" y="395.0" type="line" name="VXNVTRAE"/>
    </contour>
    <contour>
      <point x="254.0" y="225.0" type="move" name="YTJLANMZ"/>
      <point x="182.0" y="168.0" type="line" name="JEUDBWHO"/>
      <point x="105.0" y="112.0" type="line" name="QHGARTYJ"/>
    </contour>
    <contour>
      <point x="258.0" y="112.0" type="move" name="PLIOAUKC"/>
      <point x="182.0" y="168.0" type="line" name="ZBFGXMWA"/>
      <point x="109.0" y="225.0" type="line" name="WFWTPVPR"/>
    </contour>
    <contour>
      <point x="39.0" y="270.0" type="move" name="PPHZPIDG"/>
      <point x="92.0" y="332.0" type="line" name="VREXZJCA"/>
      <point x="39.0" y="395.0" type="line" name="UQDVGEKV"/>
    </contour>
    <contour>
      <point x="39.0" y="112.0" type="move" name="VVXRKYTT"/>
      <point x="92.0" y="168.0" type="line" name="JWXZNKWH"/>
      <point x="39.0" y="225.0" type="line" name="APXYFJNB"/>
    </contour>
    <contour>
      <point x="424.0" y="225.0" type="move" name="WIRGANPJ"/>
      <point x="370.0" y="168.0" type="line" name="TQCTGWEH"/>
      <point x="422.0" y="112.0" type="line" name="IQWDVQEH"/>
    </contour>
  </outline>
</glyph>
<glyph name="arrowright" format="2">
  <advance width="675"/>
  <unicode hex="2192"/>
  <outline>
    <contour>
      <point x="264.0" y="-29.0" type="move" name="RXYACUZC"/>
      <point x="345.0" y="106.0" name="OGMVGVFK"/>
      <point x="434.0" y="215.0" name="AELMXEYU"/>
      <point x="538.0" y="308.0" type="curve" name="UTLRKEQC"/>
      <point x="434.0" y="402.0" name="EXVRHSVR"/>
      <point x="345.0" y="500.0" name="MGOLNTHB"/>
      <point x="264.0" y="635.0" type="curve" name="QVGUXTQJ"/>
    </contour>
    <contour>
      <point x="670.0" y="308.0" type="move" name="MCHVBBDS"/>
      <point x="538.0" y="308.0" type="line" name="VEFCEOIH"/>
      <point x="87.0" y="308.0" type="line" name="QPHYUFCK"/>
    </contour>
    <contour>
      <point x="25.0" y="221.0" type="move" name="VAZHSFHT"/>
      <point x="87.0" y="308.0" type="line" name="VDMDVTLL"/>
      <point x="25.0" y="396.0" type="line" name="LSEOJCJB"/>
    </contour>
    <contour>
      <point x="386.0" y="249.0" type="move" name="JEJRUKMR"/>
      <point x="538.0" y="308.0" type="line" name="DVHGCLJS"/>
      <point x="379.0" y="368.0" type="line" name="KLONTXGP"/>
    </contour>
  </outline>
</glyph>
<glyph name="arrowNE" format="2">
  <advance width="636"/>
  <unicode hex="2197"/>
  <outline>
    <contour>
      <point x="517" y="57" type="move" name="QVGUXTQJ"/>
      <point x="478" y="210" name="MGOLNTHB"/>
      <point x="472" y="342" name="EXVRHSVR"/>
      <point x="479" y="482" type="curve" name="UTLRKEQC"/>
      <point x="340" y="474" name="AELMXEYU"/>
      <point x="200" y="488" name="OGMVGVFK"/>
      <point x="47" y="527" type="curve" name="RXYACUZC"/>
    </contour>
    <contour>
      <point x="150" y="153" type="move" name="QPHYUFCK"/>
      <point x="479" y="482" type="line" name="VEFCEOIH"/>
      <point x="573" y="575" type="line" name="MCHVBBDS"/>
    </contour>
    <contour>
      <point x="169" y="47" type="move" name="LSEOJCJB"/>
      <point x="150" y="153" type="line" name="VDMDVTLL"/>
      <point x="45" y="171" type="line" name="VAZHSFHT"/>
    </contour>
    <contour>
      <point x="409" y="327" type="move" name="KLONTXGP"/>
      <point x="479" y="482" type="line" name="DVHGCLJS"/>
      <point x="330" y="416" type="line" name="JEJRUKMR"/>
    </contour>
  </outline>
</glyph>
<glyph name="notequal" format="2">
  <advance width="490"/>
  <unicode hex="2260"/>
  <outline>
    <contour>
      <point x="354" y="554" type="move" name="WDBOGEYF"/>
      <point x="298" y="428" type="line" name="TQQEZLXD"/>
      <point x="192" y="188" type="line" name="XGEVANAU"/>
      <point x="136" y="62" type="line" name="RLACKKJN"/>
    </contour>
    <contour>
      <point x="388.0" y="428.0" type="move" name="GEKPDUJS"/>
      <point x="298" y="428" type="line" name="SRSLYMPF"/>
      <point x="102.0" y="428.0" type="line" name="WJUVROEW"/>
    </contour>
    <contour>
      <point x="388.0" y="188.0" type="move" name="CFJNRVJD"/>
      <point x="192" y="188" type="line" name="OZRURKDG"/>
      <point x="102.0" y="188.0" type="line" name="RWEUCAXX"/>
    </contour>
    <contour>
      <point x="156.0" y="252.0" type="move" name="IRAJSZKB"/>
      <point x="192.0" y="188.0" type="line" name="HPSMBUOL"/>
      <point x="228.0" y="125.0" type="line" name="URKNNUTT"/>
    </contour>
    <contour>
      <point x="100.0" y="125.0" type="move" name="WZDDJKWO"/>
      <point x="192.0" y="188.0" type="line" name="KVEGKDCL"/>
      <point x="284.0" y="252.0" type="line" name="KLTRESXW"/>
    </contour>
    <contour>
      <point x="262.0" y="492.0" type="move" name="JOFGGYPZ"/>
      <point x="298.0" y="428.0" type="line" name="EWIJOGBS"/>
      <point x="334.0" y="365.0" type="line" name="YGVBLCMT"/>
    </contour>
    <contour>
      <point x="206.0" y="365.0" type="move" name="PURXCAUS"/>
      <point x="298.0" y="428.0" type="line" name="DAYBIPZY"/>
      <point x="390.0" y="492.0" type="line" name="FRHEBSVJ"/>
    </contour>
    <contour>
      <point x="40.0" y="125.0" type="move" name="ABHQBCWC"/>
      <point x="102.0" y="188.0" type="line" name="FNLSIUGI"/>
      <point x="40.0" y="252.0" type="line" name="DRJJTAUP"/>
    </contour>
    <contour>
      <point x="450.0" y="252.0" type="move" name="IYGLUXJP"/>
      <point x="388.0" y="188.0" type="line" name="SBTAPLVF"/>
      <point x="450.0" y="125.0" type="line" name="FHTTXSJP"/>
    </contour>
    <contour>
      <point x="40.0" y="365.0" type="move" name="CCQEEEHQ"/>
      <point x="102.0" y="428.0" type="line" name="BGIWGUVH"/>
      <point x="40.0" y="492.0" type="line" name="XKWRAQLF"/>
    </contour>
    <contour>
      <point x="450.0" y="492.0" type="move" name="IEQBPFZH"/>
      <point x="388.0" y="428.0" type="line" name="QICFKYLA"/>
      <point x="450.0" y="365.0" type="line" name="FNNHCQUS"/>
    </contour>
    <contour>
      <point x="317" y="616" type="move" name="KWKJDLXW"/>
      <point x="354" y="554" type="line" name="MDBSSTPG"/>
      <point x="354" y="554" type="line" name="UIBBXWSQ"/>
      <point x="354" y="554" type="line" name="OGMQEGQN"/>
      <point x="445" y="616" type="line" name="WNUIIIEI"/>
    </contour>
    <contour>
      <point x="173.0" y="0.0" type="move" name="XHXCBVSJ"/>
      <point x="136.0" y="62.0" type="line" name="RVGTCUNF"/>
      <point x="136.0" y="62.0" type="line" name="TWICGTIK"/>
      <point x="136.0" y="62.0" type="line" name="BGSOJVIS"/>
      <point x="45.0" y="0.0" type="line" name="WPQBPVGH"/>
    </contour>
  </outline>
</glyph>
<glyph name="bracketangleleft" format="2">
  <advance width="381"/>
  <unicode hex="27E8"/>
  <outline>
    <contour>
      <point x="232.0" y="618.0" type="move" name="NCPOGDRX"/>
      <point x="77" y="339" type="line" name="PPALFZWU"/>
      <point x="231.0" y="62.0" type="line" name="IRZCSLPI"/>
    </contour>
    <contour>
      <point x="340.0" y="0.0" type="move" name="XJBUXPFQ"/>
      <point x="231.0" y="62.0" type="line" name="VWUMAPUP"/>
      <point x="190.0" y="0.0" type="line" name="JRLMZRMB"/>
    </contour>
    <contour>
      <point x="192.0" y="680.0" type="move" name="RRPDUBCZ"/>
      <point x="232.0" y="618.0" type="line" name="GEUAZPYU"/>
      <point x="341.0" y="680.0" type="line" name="OIRGTUIH"/>
    </contour>
    <contour>
      <point x="0.0" y="339.0" type="move" name="UNZQYKUI"/>
      <point x="77.0" y="339.0" type="line" name="FNXUYINK"/>
      <point x="154.0" y="340.0" type="line" name="OPMTEWJL"/>
    </contour>
  </outline>
</glyph>
<glyph name="periodcentered.loclCAT" format="2">
  <advance width="207"/>
  <outline>
    <contour>
      <point x="22" y="438" type="move" name="QCGWULHO"/>
      <point x="102" y="358" type="line" name="YFPBKXNV"/>
      <point x="183" y="277" type="line" name="INBZYEGN"/>
    </contour>
    <contour>
      <point x="183" y="438" type="move" name="HRMAKWLK"/>
      <point x="102" y="358" type="line" name="VOVZRJAG"/>
      <point x="22" y="277" type="line" name="GZCJRFMX"/>
    </contour>
  </outline>
</glyph>
